%TF.GenerationSoftware,KiCad,Pcbnew,(6.0.8-1)-1*%
%TF.CreationDate,2023-05-11T15:02:47-07:00*%
%TF.ProjectId,rainus2.0,7261696e-7573-4322-9e30-2e6b69636164,rev?*%
%TF.SameCoordinates,Original*%
%TF.FileFunction,Drillmap*%
%TF.FilePolarity,Positive*%
%FSLAX45Y45*%
G04 Gerber Fmt 4.5, Leading zero omitted, Abs format (unit mm)*
G04 Created by KiCad (PCBNEW (6.0.8-1)-1) date 2023-05-11 15:02:47*
%MOMM*%
%LPD*%
G01*
G04 APERTURE LIST*
%ADD10C,0.100000*%
%ADD11C,0.200000*%
%ADD12C,0.345000*%
G04 APERTURE END LIST*
D10*
X12319000Y-7112000D02*
X12446000Y-7112000D01*
X12446000Y-6223000D01*
X18415000Y-6223000D01*
X18415000Y-11176000D01*
X12446000Y-11176000D01*
X12446000Y-10414000D01*
X12319000Y-10414000D01*
X12319000Y-11176000D01*
X9017000Y-11176000D01*
X9017000Y-6223000D01*
X12319000Y-6223000D01*
X12319000Y-7112000D01*
X12319000Y-8763000D02*
X12446000Y-8763000D01*
X12446000Y-8763000D02*
X12446000Y-10160000D01*
X12446000Y-10160000D02*
X12319000Y-10160000D01*
X12319000Y-10160000D02*
X12319000Y-8763000D01*
X12319000Y-7366000D02*
X12446000Y-7366000D01*
X12446000Y-7366000D02*
X12446000Y-8636000D01*
X12446000Y-8636000D02*
X12319000Y-8636000D01*
X12319000Y-8636000D02*
X12319000Y-7366000D01*
D11*
D12*
X9607375Y-9098500D02*
X9952375Y-9443500D01*
X9952375Y-9098500D02*
X9607375Y-9443500D01*
X9607375Y-10241500D02*
X9952375Y-10586500D01*
X9952375Y-10241500D02*
X9607375Y-10586500D01*
X13239500Y-9427750D02*
X13584500Y-9772750D01*
X13584500Y-9427750D02*
X13239500Y-9772750D01*
X13239500Y-10570750D02*
X13584500Y-10915750D01*
X13584500Y-10570750D02*
X13239500Y-10915750D01*
X13289500Y-7320500D02*
X13634500Y-7665500D01*
X13634500Y-7320500D02*
X13289500Y-7665500D01*
X13289500Y-8463500D02*
X13634500Y-8808500D01*
X13634500Y-8463500D02*
X13289500Y-8808500D01*
D11*
X9269619Y-11491476D02*
X9269619Y-11291476D01*
X9317238Y-11291476D01*
X9345810Y-11301000D01*
X9364857Y-11320048D01*
X9374381Y-11339095D01*
X9383905Y-11377190D01*
X9383905Y-11405762D01*
X9374381Y-11443857D01*
X9364857Y-11462905D01*
X9345810Y-11481952D01*
X9317238Y-11491476D01*
X9269619Y-11491476D01*
X9469619Y-11491476D02*
X9469619Y-11358143D01*
X9469619Y-11396238D02*
X9479143Y-11377190D01*
X9488667Y-11367667D01*
X9507714Y-11358143D01*
X9526762Y-11358143D01*
X9593429Y-11491476D02*
X9593429Y-11358143D01*
X9593429Y-11291476D02*
X9583905Y-11301000D01*
X9593429Y-11310524D01*
X9602952Y-11301000D01*
X9593429Y-11291476D01*
X9593429Y-11310524D01*
X9717238Y-11491476D02*
X9698190Y-11481952D01*
X9688667Y-11462905D01*
X9688667Y-11291476D01*
X9822000Y-11491476D02*
X9802952Y-11481952D01*
X9793429Y-11462905D01*
X9793429Y-11291476D01*
X10050571Y-11491476D02*
X10050571Y-11291476D01*
X10117238Y-11434333D01*
X10183905Y-11291476D01*
X10183905Y-11491476D01*
X10364857Y-11491476D02*
X10364857Y-11386714D01*
X10355333Y-11367667D01*
X10336286Y-11358143D01*
X10298190Y-11358143D01*
X10279143Y-11367667D01*
X10364857Y-11481952D02*
X10345810Y-11491476D01*
X10298190Y-11491476D01*
X10279143Y-11481952D01*
X10269619Y-11462905D01*
X10269619Y-11443857D01*
X10279143Y-11424809D01*
X10298190Y-11415286D01*
X10345810Y-11415286D01*
X10364857Y-11405762D01*
X10460095Y-11358143D02*
X10460095Y-11558143D01*
X10460095Y-11367667D02*
X10479143Y-11358143D01*
X10517238Y-11358143D01*
X10536286Y-11367667D01*
X10545810Y-11377190D01*
X10555333Y-11396238D01*
X10555333Y-11453381D01*
X10545810Y-11472428D01*
X10536286Y-11481952D01*
X10517238Y-11491476D01*
X10479143Y-11491476D01*
X10460095Y-11481952D01*
X10641048Y-11472428D02*
X10650571Y-11481952D01*
X10641048Y-11491476D01*
X10631524Y-11481952D01*
X10641048Y-11472428D01*
X10641048Y-11491476D01*
X10641048Y-11367667D02*
X10650571Y-11377190D01*
X10641048Y-11386714D01*
X10631524Y-11377190D01*
X10641048Y-11367667D01*
X10641048Y-11386714D01*
X8812000Y-11721000D02*
X9012000Y-11921000D01*
X9012000Y-11721000D02*
X8812000Y-11921000D01*
X9250571Y-11711476D02*
X9374381Y-11711476D01*
X9307714Y-11787667D01*
X9336286Y-11787667D01*
X9355333Y-11797190D01*
X9364857Y-11806714D01*
X9374381Y-11825762D01*
X9374381Y-11873381D01*
X9364857Y-11892428D01*
X9355333Y-11901952D01*
X9336286Y-11911476D01*
X9279143Y-11911476D01*
X9260095Y-11901952D01*
X9250571Y-11892428D01*
X9460095Y-11892428D02*
X9469619Y-11901952D01*
X9460095Y-11911476D01*
X9450571Y-11901952D01*
X9460095Y-11892428D01*
X9460095Y-11911476D01*
X9641048Y-11778143D02*
X9641048Y-11911476D01*
X9593429Y-11701952D02*
X9545810Y-11844809D01*
X9669619Y-11844809D01*
X9841048Y-11711476D02*
X9745810Y-11711476D01*
X9736286Y-11806714D01*
X9745810Y-11797190D01*
X9764857Y-11787667D01*
X9812476Y-11787667D01*
X9831524Y-11797190D01*
X9841048Y-11806714D01*
X9850571Y-11825762D01*
X9850571Y-11873381D01*
X9841048Y-11892428D01*
X9831524Y-11901952D01*
X9812476Y-11911476D01*
X9764857Y-11911476D01*
X9745810Y-11901952D01*
X9736286Y-11892428D01*
X9974381Y-11711476D02*
X9993429Y-11711476D01*
X10012476Y-11721000D01*
X10022000Y-11730524D01*
X10031524Y-11749571D01*
X10041048Y-11787667D01*
X10041048Y-11835286D01*
X10031524Y-11873381D01*
X10022000Y-11892428D01*
X10012476Y-11901952D01*
X9993429Y-11911476D01*
X9974381Y-11911476D01*
X9955333Y-11901952D01*
X9945810Y-11892428D01*
X9936286Y-11873381D01*
X9926762Y-11835286D01*
X9926762Y-11787667D01*
X9936286Y-11749571D01*
X9945810Y-11730524D01*
X9955333Y-11721000D01*
X9974381Y-11711476D01*
X10126762Y-11911476D02*
X10126762Y-11778143D01*
X10126762Y-11797190D02*
X10136286Y-11787667D01*
X10155333Y-11778143D01*
X10183905Y-11778143D01*
X10202952Y-11787667D01*
X10212476Y-11806714D01*
X10212476Y-11911476D01*
X10212476Y-11806714D02*
X10222000Y-11787667D01*
X10241048Y-11778143D01*
X10269619Y-11778143D01*
X10288667Y-11787667D01*
X10298190Y-11806714D01*
X10298190Y-11911476D01*
X10393429Y-11911476D02*
X10393429Y-11778143D01*
X10393429Y-11797190D02*
X10402952Y-11787667D01*
X10422000Y-11778143D01*
X10450571Y-11778143D01*
X10469619Y-11787667D01*
X10479143Y-11806714D01*
X10479143Y-11911476D01*
X10479143Y-11806714D02*
X10488667Y-11787667D01*
X10507714Y-11778143D01*
X10536286Y-11778143D01*
X10555333Y-11787667D01*
X10564857Y-11806714D01*
X10564857Y-11911476D01*
X10955333Y-11701952D02*
X10783905Y-11959095D01*
X11212476Y-11711476D02*
X11231524Y-11711476D01*
X11250571Y-11721000D01*
X11260095Y-11730524D01*
X11269619Y-11749571D01*
X11279143Y-11787667D01*
X11279143Y-11835286D01*
X11269619Y-11873381D01*
X11260095Y-11892428D01*
X11250571Y-11901952D01*
X11231524Y-11911476D01*
X11212476Y-11911476D01*
X11193428Y-11901952D01*
X11183905Y-11892428D01*
X11174381Y-11873381D01*
X11164857Y-11835286D01*
X11164857Y-11787667D01*
X11174381Y-11749571D01*
X11183905Y-11730524D01*
X11193428Y-11721000D01*
X11212476Y-11711476D01*
X11364857Y-11892428D02*
X11374381Y-11901952D01*
X11364857Y-11911476D01*
X11355333Y-11901952D01*
X11364857Y-11892428D01*
X11364857Y-11911476D01*
X11564857Y-11911476D02*
X11450571Y-11911476D01*
X11507714Y-11911476D02*
X11507714Y-11711476D01*
X11488667Y-11740048D01*
X11469619Y-11759095D01*
X11450571Y-11768619D01*
X11631524Y-11711476D02*
X11755333Y-11711476D01*
X11688667Y-11787667D01*
X11717238Y-11787667D01*
X11736286Y-11797190D01*
X11745809Y-11806714D01*
X11755333Y-11825762D01*
X11755333Y-11873381D01*
X11745809Y-11892428D01*
X11736286Y-11901952D01*
X11717238Y-11911476D01*
X11660095Y-11911476D01*
X11641048Y-11901952D01*
X11631524Y-11892428D01*
X11936286Y-11711476D02*
X11841048Y-11711476D01*
X11831524Y-11806714D01*
X11841048Y-11797190D01*
X11860095Y-11787667D01*
X11907714Y-11787667D01*
X11926762Y-11797190D01*
X11936286Y-11806714D01*
X11945809Y-11825762D01*
X11945809Y-11873381D01*
X11936286Y-11892428D01*
X11926762Y-11901952D01*
X11907714Y-11911476D01*
X11860095Y-11911476D01*
X11841048Y-11901952D01*
X11831524Y-11892428D01*
X12060095Y-11797190D02*
X12041048Y-11787667D01*
X12031524Y-11778143D01*
X12022000Y-11759095D01*
X12022000Y-11749571D01*
X12031524Y-11730524D01*
X12041048Y-11721000D01*
X12060095Y-11711476D01*
X12098190Y-11711476D01*
X12117238Y-11721000D01*
X12126762Y-11730524D01*
X12136286Y-11749571D01*
X12136286Y-11759095D01*
X12126762Y-11778143D01*
X12117238Y-11787667D01*
X12098190Y-11797190D01*
X12060095Y-11797190D01*
X12041048Y-11806714D01*
X12031524Y-11816238D01*
X12022000Y-11835286D01*
X12022000Y-11873381D01*
X12031524Y-11892428D01*
X12041048Y-11901952D01*
X12060095Y-11911476D01*
X12098190Y-11911476D01*
X12117238Y-11901952D01*
X12126762Y-11892428D01*
X12136286Y-11873381D01*
X12136286Y-11835286D01*
X12126762Y-11816238D01*
X12117238Y-11806714D01*
X12098190Y-11797190D01*
X12212476Y-11711476D02*
X12212476Y-11749571D01*
X12288667Y-11711476D02*
X12288667Y-11749571D01*
X12583905Y-11987667D02*
X12574381Y-11978143D01*
X12555333Y-11949571D01*
X12545809Y-11930524D01*
X12536286Y-11901952D01*
X12526762Y-11854333D01*
X12526762Y-11816238D01*
X12536286Y-11768619D01*
X12545809Y-11740048D01*
X12555333Y-11721000D01*
X12574381Y-11692428D01*
X12583905Y-11682905D01*
X12745809Y-11711476D02*
X12707714Y-11711476D01*
X12688667Y-11721000D01*
X12679143Y-11730524D01*
X12660095Y-11759095D01*
X12650571Y-11797190D01*
X12650571Y-11873381D01*
X12660095Y-11892428D01*
X12669619Y-11901952D01*
X12688667Y-11911476D01*
X12726762Y-11911476D01*
X12745809Y-11901952D01*
X12755333Y-11892428D01*
X12764857Y-11873381D01*
X12764857Y-11825762D01*
X12755333Y-11806714D01*
X12745809Y-11797190D01*
X12726762Y-11787667D01*
X12688667Y-11787667D01*
X12669619Y-11797190D01*
X12660095Y-11806714D01*
X12650571Y-11825762D01*
X13002952Y-11911476D02*
X13002952Y-11711476D01*
X13088667Y-11911476D02*
X13088667Y-11806714D01*
X13079143Y-11787667D01*
X13060095Y-11778143D01*
X13031524Y-11778143D01*
X13012476Y-11787667D01*
X13002952Y-11797190D01*
X13212476Y-11911476D02*
X13193428Y-11901952D01*
X13183905Y-11892428D01*
X13174381Y-11873381D01*
X13174381Y-11816238D01*
X13183905Y-11797190D01*
X13193428Y-11787667D01*
X13212476Y-11778143D01*
X13241048Y-11778143D01*
X13260095Y-11787667D01*
X13269619Y-11797190D01*
X13279143Y-11816238D01*
X13279143Y-11873381D01*
X13269619Y-11892428D01*
X13260095Y-11901952D01*
X13241048Y-11911476D01*
X13212476Y-11911476D01*
X13393428Y-11911476D02*
X13374381Y-11901952D01*
X13364857Y-11882905D01*
X13364857Y-11711476D01*
X13545809Y-11901952D02*
X13526762Y-11911476D01*
X13488667Y-11911476D01*
X13469619Y-11901952D01*
X13460095Y-11882905D01*
X13460095Y-11806714D01*
X13469619Y-11787667D01*
X13488667Y-11778143D01*
X13526762Y-11778143D01*
X13545809Y-11787667D01*
X13555333Y-11806714D01*
X13555333Y-11825762D01*
X13460095Y-11844809D01*
X13631524Y-11901952D02*
X13650571Y-11911476D01*
X13688667Y-11911476D01*
X13707714Y-11901952D01*
X13717238Y-11882905D01*
X13717238Y-11873381D01*
X13707714Y-11854333D01*
X13688667Y-11844809D01*
X13660095Y-11844809D01*
X13641048Y-11835286D01*
X13631524Y-11816238D01*
X13631524Y-11806714D01*
X13641048Y-11787667D01*
X13660095Y-11778143D01*
X13688667Y-11778143D01*
X13707714Y-11787667D01*
X13783905Y-11987667D02*
X13793428Y-11978143D01*
X13812476Y-11949571D01*
X13822000Y-11930524D01*
X13831524Y-11901952D01*
X13841048Y-11854333D01*
X13841048Y-11816238D01*
X13831524Y-11768619D01*
X13822000Y-11740048D01*
X13812476Y-11721000D01*
X13793428Y-11692428D01*
X13783905Y-11682905D01*
X14145809Y-11987667D02*
X14136286Y-11978143D01*
X14117238Y-11949571D01*
X14107714Y-11930524D01*
X14098190Y-11901952D01*
X14088667Y-11854333D01*
X14088667Y-11816238D01*
X14098190Y-11768619D01*
X14107714Y-11740048D01*
X14117238Y-11721000D01*
X14136286Y-11692428D01*
X14145809Y-11682905D01*
X14222000Y-11778143D02*
X14222000Y-11911476D01*
X14222000Y-11797190D02*
X14231524Y-11787667D01*
X14250571Y-11778143D01*
X14279143Y-11778143D01*
X14298190Y-11787667D01*
X14307714Y-11806714D01*
X14307714Y-11911476D01*
X14431524Y-11911476D02*
X14412476Y-11901952D01*
X14402952Y-11892428D01*
X14393428Y-11873381D01*
X14393428Y-11816238D01*
X14402952Y-11797190D01*
X14412476Y-11787667D01*
X14431524Y-11778143D01*
X14460095Y-11778143D01*
X14479143Y-11787667D01*
X14488667Y-11797190D01*
X14498190Y-11816238D01*
X14498190Y-11873381D01*
X14488667Y-11892428D01*
X14479143Y-11901952D01*
X14460095Y-11911476D01*
X14431524Y-11911476D01*
X14555333Y-11778143D02*
X14631524Y-11778143D01*
X14583905Y-11711476D02*
X14583905Y-11882905D01*
X14593428Y-11901952D01*
X14612476Y-11911476D01*
X14631524Y-11911476D01*
X14850571Y-11778143D02*
X14850571Y-11978143D01*
X14850571Y-11787667D02*
X14869619Y-11778143D01*
X14907714Y-11778143D01*
X14926762Y-11787667D01*
X14936286Y-11797190D01*
X14945809Y-11816238D01*
X14945809Y-11873381D01*
X14936286Y-11892428D01*
X14926762Y-11901952D01*
X14907714Y-11911476D01*
X14869619Y-11911476D01*
X14850571Y-11901952D01*
X15060095Y-11911476D02*
X15041048Y-11901952D01*
X15031524Y-11882905D01*
X15031524Y-11711476D01*
X15222000Y-11911476D02*
X15222000Y-11806714D01*
X15212476Y-11787667D01*
X15193428Y-11778143D01*
X15155333Y-11778143D01*
X15136286Y-11787667D01*
X15222000Y-11901952D02*
X15202952Y-11911476D01*
X15155333Y-11911476D01*
X15136286Y-11901952D01*
X15126762Y-11882905D01*
X15126762Y-11863857D01*
X15136286Y-11844809D01*
X15155333Y-11835286D01*
X15202952Y-11835286D01*
X15222000Y-11825762D01*
X15288667Y-11778143D02*
X15364857Y-11778143D01*
X15317238Y-11711476D02*
X15317238Y-11882905D01*
X15326762Y-11901952D01*
X15345809Y-11911476D01*
X15364857Y-11911476D01*
X15507714Y-11901952D02*
X15488667Y-11911476D01*
X15450571Y-11911476D01*
X15431524Y-11901952D01*
X15422000Y-11882905D01*
X15422000Y-11806714D01*
X15431524Y-11787667D01*
X15450571Y-11778143D01*
X15488667Y-11778143D01*
X15507714Y-11787667D01*
X15517238Y-11806714D01*
X15517238Y-11825762D01*
X15422000Y-11844809D01*
X15688667Y-11911476D02*
X15688667Y-11711476D01*
X15688667Y-11901952D02*
X15669619Y-11911476D01*
X15631524Y-11911476D01*
X15612476Y-11901952D01*
X15602952Y-11892428D01*
X15593428Y-11873381D01*
X15593428Y-11816238D01*
X15602952Y-11797190D01*
X15612476Y-11787667D01*
X15631524Y-11778143D01*
X15669619Y-11778143D01*
X15688667Y-11787667D01*
X15764857Y-11987667D02*
X15774381Y-11978143D01*
X15793428Y-11949571D01*
X15802952Y-11930524D01*
X15812476Y-11901952D01*
X15822000Y-11854333D01*
X15822000Y-11816238D01*
X15812476Y-11768619D01*
X15802952Y-11740048D01*
X15793428Y-11721000D01*
X15774381Y-11692428D01*
X15764857Y-11682905D01*
M02*
