%TF.GenerationSoftware,KiCad,Pcbnew,(6.0.8-1)-1*%
%TF.CreationDate,2023-05-11T15:02:42-07:00*%
%TF.ProjectId,rainus2.0,7261696e-7573-4322-9e30-2e6b69636164,rev?*%
%TF.SameCoordinates,Original*%
%TF.FileFunction,Copper,L1,Top*%
%TF.FilePolarity,Positive*%
%FSLAX46Y46*%
G04 Gerber Fmt 4.6, Leading zero omitted, Abs format (unit mm)*
G04 Created by KiCad (PCBNEW (6.0.8-1)-1) date 2023-05-11 15:02:42*
%MOMM*%
%LPD*%
G01*
G04 APERTURE LIST*
%TA.AperFunction,ComponentPad*%
%ADD10C,1.524000*%
%TD*%
%TA.AperFunction,WasherPad*%
%ADD11C,3.650000*%
%TD*%
%TA.AperFunction,ComponentPad*%
%ADD12R,1.500000X1.500000*%
%TD*%
%TA.AperFunction,ComponentPad*%
%ADD13C,1.500000*%
%TD*%
%TA.AperFunction,ComponentPad*%
%ADD14O,1.524000X1.524000*%
%TD*%
G04 APERTURE END LIST*
D10*
%TO.P,,1*%
%TO.N,N/C*%
X118618750Y-104657500D03*
%TD*%
%TO.P,,1*%
%TO.N,N/C*%
X118618750Y-97037500D03*
%TD*%
%TO.P,,1*%
%TO.N,N/C*%
X180340000Y-72390000D03*
%TD*%
%TO.P,,1*%
%TO.N,N/C*%
X118618750Y-91957500D03*
%TD*%
%TO.P,,1*%
%TO.N,N/C*%
X138430000Y-66040000D03*
%TD*%
%TO.P,,1*%
%TO.N,N/C*%
X180340000Y-77470000D03*
%TD*%
%TO.P,,1*%
%TO.N,N/C*%
X118618750Y-102117500D03*
%TD*%
D11*
%TO.P,REF\u002A\u002A,*%
%TO.N,*%
X134620000Y-86360000D03*
X134620000Y-74930000D03*
D12*
%TO.P,REF\u002A\u002A,1*%
%TO.N,N/C*%
X140970000Y-76200000D03*
D13*
%TO.P,REF\u002A\u002A,2*%
X143510000Y-77470000D03*
%TO.P,REF\u002A\u002A,3*%
X140970000Y-78740000D03*
%TO.P,REF\u002A\u002A,4*%
X143510000Y-80010000D03*
%TO.P,REF\u002A\u002A,5*%
X140970000Y-81280000D03*
%TO.P,REF\u002A\u002A,6*%
X143510000Y-82550000D03*
%TO.P,REF\u002A\u002A,7*%
X140970000Y-83820000D03*
%TO.P,REF\u002A\u002A,8*%
X143510000Y-85090000D03*
%TD*%
D10*
%TO.P,,1*%
%TO.N,N/C*%
X180340000Y-80010000D03*
%TD*%
%TO.P,,1*%
%TO.N,N/C*%
X102108750Y-83067500D03*
%TD*%
%TO.P,,1*%
%TO.N,N/C*%
X118618750Y-99577500D03*
%TD*%
%TO.P,REF\u002A\u002A,1*%
%TO.N,N/C*%
X161290000Y-67310000D03*
%TO.P,REF\u002A\u002A,2*%
X161290000Y-105410000D03*
%TO.P,REF\u002A\u002A,5*%
X172720000Y-74930000D03*
%TO.P,REF\u002A\u002A,6*%
X172720000Y-77470000D03*
%TO.P,REF\u002A\u002A,7*%
X172720000Y-80010000D03*
%TO.P,REF\u002A\u002A,8*%
X172720000Y-82550000D03*
%TO.P,REF\u002A\u002A,9*%
X172720000Y-85090000D03*
%TO.P,REF\u002A\u002A,10*%
X172720000Y-87630000D03*
%TO.P,REF\u002A\u002A,11*%
X172720000Y-90170000D03*
D14*
%TO.P,REF\u002A\u002A,12*%
X149890000Y-72390000D03*
D10*
%TO.P,REF\u002A\u002A,13*%
X149860000Y-74930000D03*
%TO.P,REF\u002A\u002A,14*%
X149860000Y-77470000D03*
%TO.P,REF\u002A\u002A,15*%
X149860000Y-80010000D03*
%TO.P,REF\u002A\u002A,16*%
X149860000Y-82550000D03*
%TO.P,REF\u002A\u002A,17*%
X149860000Y-85090000D03*
%TO.P,REF\u002A\u002A,18*%
X149860000Y-87630000D03*
%TO.P,REF\u002A\u002A,19*%
X149860000Y-90170000D03*
D14*
%TO.P,REF\u002A\u002A,20*%
X172720000Y-72390000D03*
%TD*%
D10*
%TO.P,,1*%
%TO.N,N/C*%
X180340000Y-82550000D03*
%TD*%
D11*
%TO.P,REF\u002A\u002A,*%
%TO.N,*%
X97798750Y-104140000D03*
X97798750Y-92710000D03*
D12*
%TO.P,REF\u002A\u002A,1*%
%TO.N,N/C*%
X104148750Y-93980000D03*
D13*
%TO.P,REF\u002A\u002A,2*%
X106688750Y-95250000D03*
%TO.P,REF\u002A\u002A,3*%
X104148750Y-96520000D03*
%TO.P,REF\u002A\u002A,4*%
X106688750Y-97790000D03*
%TO.P,REF\u002A\u002A,5*%
X104148750Y-99060000D03*
%TO.P,REF\u002A\u002A,6*%
X106688750Y-100330000D03*
%TO.P,REF\u002A\u002A,7*%
X104148750Y-101600000D03*
%TO.P,REF\u002A\u002A,8*%
X106688750Y-102870000D03*
%TD*%
D10*
%TO.P,,1*%
%TO.N,N/C*%
X108458750Y-83067500D03*
%TD*%
D11*
%TO.P,REF\u002A\u002A,*%
%TO.N,*%
X134120000Y-107432500D03*
X134120000Y-96002500D03*
D12*
%TO.P,REF\u002A\u002A,1*%
%TO.N,N/C*%
X140470000Y-97272500D03*
D13*
%TO.P,REF\u002A\u002A,2*%
X143010000Y-98542500D03*
%TO.P,REF\u002A\u002A,3*%
X140470000Y-99812500D03*
%TO.P,REF\u002A\u002A,4*%
X143010000Y-101082500D03*
%TO.P,REF\u002A\u002A,5*%
X140470000Y-102352500D03*
%TO.P,REF\u002A\u002A,6*%
X143010000Y-103622500D03*
%TO.P,REF\u002A\u002A,7*%
X140470000Y-104892500D03*
%TO.P,REF\u002A\u002A,8*%
X143010000Y-106162500D03*
%TD*%
D10*
%TO.P,,1*%
%TO.N,N/C*%
X154940000Y-78740000D03*
%TD*%
%TO.P,,1*%
%TO.N,N/C*%
X118618750Y-94497500D03*
%TD*%
%TO.P,,1*%
%TO.N,N/C*%
X154940000Y-93980000D03*
%TD*%
%TO.P,,1*%
%TO.N,N/C*%
X144780000Y-69850000D03*
%TD*%
%TO.P,,1*%
%TO.N,N/C*%
X180340000Y-74930000D03*
%TD*%
M02*
