%TF.GenerationSoftware,KiCad,Pcbnew,(6.0.8-1)-1*%
%TF.CreationDate,2023-05-11T15:02:42-07:00*%
%TF.ProjectId,rainus2.0,7261696e-7573-4322-9e30-2e6b69636164,rev?*%
%TF.SameCoordinates,Original*%
%TF.FileFunction,Legend,Top*%
%TF.FilePolarity,Positive*%
%FSLAX46Y46*%
G04 Gerber Fmt 4.6, Leading zero omitted, Abs format (unit mm)*
G04 Created by KiCad (PCBNEW (6.0.8-1)-1) date 2023-05-11 15:02:42*
%MOMM*%
%LPD*%
G01*
G04 APERTURE LIST*
%ADD10C,0.150000*%
%ADD11C,0.120000*%
%ADD12C,3.650000*%
%ADD13C,1.524000*%
%ADD14R,1.500000X1.500000*%
%ADD15C,1.500000*%
%ADD16O,1.524000X1.524000*%
G04 APERTURE END LIST*
D10*
X144399047Y-71191428D02*
X145160952Y-71191428D01*
X144780000Y-71572380D02*
X144780000Y-70810476D01*
X183332380Y-79311428D02*
X182856190Y-79644761D01*
X183332380Y-79882857D02*
X182332380Y-79882857D01*
X182332380Y-79501904D01*
X182380000Y-79406666D01*
X182427619Y-79359047D01*
X182522857Y-79311428D01*
X182665714Y-79311428D01*
X182760952Y-79359047D01*
X182808571Y-79406666D01*
X182856190Y-79501904D01*
X182856190Y-79882857D01*
X182332380Y-79025714D02*
X182332380Y-78454285D01*
X183332380Y-78740000D02*
X182332380Y-78740000D01*
X183237142Y-77549523D02*
X183284761Y-77597142D01*
X183332380Y-77740000D01*
X183332380Y-77835238D01*
X183284761Y-77978095D01*
X183189523Y-78073333D01*
X183094285Y-78120952D01*
X182903809Y-78168571D01*
X182760952Y-78168571D01*
X182570476Y-78120952D01*
X182475238Y-78073333D01*
X182380000Y-77978095D01*
X182332380Y-77835238D01*
X182332380Y-77740000D01*
X182380000Y-77597142D01*
X182427619Y-77549523D01*
X99401904Y-69365714D02*
X99163809Y-69365714D01*
X99163809Y-67937142D01*
X99401904Y-67937142D01*
X101640000Y-68508571D02*
X101782857Y-68556190D01*
X101830476Y-68603809D01*
X101878095Y-68699047D01*
X101878095Y-68841904D01*
X101830476Y-68937142D01*
X101782857Y-68984761D01*
X101687619Y-69032380D01*
X101306666Y-69032380D01*
X101306666Y-68032380D01*
X101640000Y-68032380D01*
X101735238Y-68080000D01*
X101782857Y-68127619D01*
X101830476Y-68222857D01*
X101830476Y-68318095D01*
X101782857Y-68413333D01*
X101735238Y-68460952D01*
X101640000Y-68508571D01*
X101306666Y-68508571D01*
X102259047Y-68746666D02*
X102735238Y-68746666D01*
X102163809Y-69032380D02*
X102497142Y-68032380D01*
X102830476Y-69032380D01*
X103020952Y-68032380D02*
X103592380Y-68032380D01*
X103306666Y-69032380D02*
X103306666Y-68032380D01*
X103782857Y-68032380D02*
X104354285Y-68032380D01*
X104068571Y-69032380D02*
X104068571Y-68032380D01*
X104687619Y-68508571D02*
X105020952Y-68508571D01*
X105163809Y-69032380D02*
X104687619Y-69032380D01*
X104687619Y-68032380D01*
X105163809Y-68032380D01*
X106163809Y-69032380D02*
X105830476Y-68556190D01*
X105592380Y-69032380D02*
X105592380Y-68032380D01*
X105973333Y-68032380D01*
X106068571Y-68080000D01*
X106116190Y-68127619D01*
X106163809Y-68222857D01*
X106163809Y-68365714D01*
X106116190Y-68460952D01*
X106068571Y-68508571D01*
X105973333Y-68556190D01*
X105592380Y-68556190D01*
X106782857Y-68556190D02*
X106782857Y-69032380D01*
X106449523Y-68032380D02*
X106782857Y-68556190D01*
X107116190Y-68032380D01*
X108878095Y-69365714D02*
X109116190Y-69365714D01*
X109116190Y-67937142D01*
X108878095Y-67937142D01*
X133596190Y-81732380D02*
X133262857Y-81256190D01*
X133024761Y-81732380D02*
X133024761Y-80732380D01*
X133405714Y-80732380D01*
X133500952Y-80780000D01*
X133548571Y-80827619D01*
X133596190Y-80922857D01*
X133596190Y-81065714D01*
X133548571Y-81160952D01*
X133500952Y-81208571D01*
X133405714Y-81256190D01*
X133024761Y-81256190D01*
X134310476Y-80732380D02*
X134310476Y-81446666D01*
X134262857Y-81589523D01*
X134167619Y-81684761D01*
X134024761Y-81732380D01*
X133929523Y-81732380D01*
X135215238Y-81065714D02*
X135215238Y-81732380D01*
X134977142Y-80684761D02*
X134739047Y-81399047D01*
X135358095Y-81399047D01*
X136215238Y-80732380D02*
X135739047Y-80732380D01*
X135691428Y-81208571D01*
X135739047Y-81160952D01*
X135834285Y-81113333D01*
X136072380Y-81113333D01*
X136167619Y-81160952D01*
X136215238Y-81208571D01*
X136262857Y-81303809D01*
X136262857Y-81541904D01*
X136215238Y-81637142D01*
X136167619Y-81684761D01*
X136072380Y-81732380D01*
X135834285Y-81732380D01*
X135739047Y-81684761D01*
X135691428Y-81637142D01*
X121515238Y-95321904D02*
X121467619Y-95464761D01*
X121467619Y-95702857D01*
X121515238Y-95798095D01*
X121562857Y-95845714D01*
X121658095Y-95893333D01*
X121753333Y-95893333D01*
X121848571Y-95845714D01*
X121896190Y-95798095D01*
X121943809Y-95702857D01*
X121991428Y-95512380D01*
X122039047Y-95417142D01*
X122086666Y-95369523D01*
X122181904Y-95321904D01*
X122277142Y-95321904D01*
X122372380Y-95369523D01*
X122420000Y-95417142D01*
X122467619Y-95512380D01*
X122467619Y-95750476D01*
X122420000Y-95893333D01*
X121467619Y-96321904D02*
X122467619Y-96321904D01*
X122467619Y-96560000D01*
X122420000Y-96702857D01*
X122324761Y-96798095D01*
X122229523Y-96845714D01*
X122039047Y-96893333D01*
X121896190Y-96893333D01*
X121705714Y-96845714D01*
X121610476Y-96798095D01*
X121515238Y-96702857D01*
X121467619Y-96560000D01*
X121467619Y-96321904D01*
X121467619Y-98655238D02*
X121943809Y-98321904D01*
X121467619Y-98083809D02*
X122467619Y-98083809D01*
X122467619Y-98464761D01*
X122420000Y-98560000D01*
X122372380Y-98607619D01*
X122277142Y-98655238D01*
X122134285Y-98655238D01*
X122039047Y-98607619D01*
X121991428Y-98560000D01*
X121943809Y-98464761D01*
X121943809Y-98083809D01*
X121515238Y-99464761D02*
X121467619Y-99369523D01*
X121467619Y-99179047D01*
X121515238Y-99083809D01*
X121610476Y-99036190D01*
X121991428Y-99036190D01*
X122086666Y-99083809D01*
X122134285Y-99179047D01*
X122134285Y-99369523D01*
X122086666Y-99464761D01*
X121991428Y-99512380D01*
X121896190Y-99512380D01*
X121800952Y-99036190D01*
X121467619Y-100369523D02*
X121991428Y-100369523D01*
X122086666Y-100321904D01*
X122134285Y-100226666D01*
X122134285Y-100036190D01*
X122086666Y-99940952D01*
X121515238Y-100369523D02*
X121467619Y-100274285D01*
X121467619Y-100036190D01*
X121515238Y-99940952D01*
X121610476Y-99893333D01*
X121705714Y-99893333D01*
X121800952Y-99940952D01*
X121848571Y-100036190D01*
X121848571Y-100274285D01*
X121896190Y-100369523D01*
X121467619Y-101274285D02*
X122467619Y-101274285D01*
X121515238Y-101274285D02*
X121467619Y-101179047D01*
X121467619Y-100988571D01*
X121515238Y-100893333D01*
X121562857Y-100845714D01*
X121658095Y-100798095D01*
X121943809Y-100798095D01*
X122039047Y-100845714D01*
X122086666Y-100893333D01*
X122134285Y-100988571D01*
X122134285Y-101179047D01*
X122086666Y-101274285D01*
X121515238Y-102131428D02*
X121467619Y-102036190D01*
X121467619Y-101845714D01*
X121515238Y-101750476D01*
X121610476Y-101702857D01*
X121991428Y-101702857D01*
X122086666Y-101750476D01*
X122134285Y-101845714D01*
X122134285Y-102036190D01*
X122086666Y-102131428D01*
X121991428Y-102179047D01*
X121896190Y-102179047D01*
X121800952Y-101702857D01*
X121467619Y-102607619D02*
X122134285Y-102607619D01*
X121943809Y-102607619D02*
X122039047Y-102655238D01*
X122086666Y-102702857D01*
X122134285Y-102798095D01*
X122134285Y-102893333D01*
X156964761Y-84272380D02*
X156488571Y-84272380D01*
X156488571Y-83272380D01*
X157298095Y-84272380D02*
X157298095Y-83605714D01*
X157298095Y-83272380D02*
X157250476Y-83320000D01*
X157298095Y-83367619D01*
X157345714Y-83320000D01*
X157298095Y-83272380D01*
X157298095Y-83367619D01*
X157917142Y-84272380D02*
X157821904Y-84224761D01*
X157774285Y-84129523D01*
X157774285Y-83272380D01*
X158202857Y-83605714D02*
X158440952Y-84272380D01*
X158679047Y-83605714D02*
X158440952Y-84272380D01*
X158345714Y-84510476D01*
X158298095Y-84558095D01*
X158202857Y-84605714D01*
X159488571Y-83605714D02*
X159488571Y-84415238D01*
X159440952Y-84510476D01*
X159393333Y-84558095D01*
X159298095Y-84605714D01*
X159155238Y-84605714D01*
X159060000Y-84558095D01*
X159488571Y-84224761D02*
X159393333Y-84272380D01*
X159202857Y-84272380D01*
X159107619Y-84224761D01*
X159060000Y-84177142D01*
X159012380Y-84081904D01*
X159012380Y-83796190D01*
X159060000Y-83700952D01*
X159107619Y-83653333D01*
X159202857Y-83605714D01*
X159393333Y-83605714D01*
X159488571Y-83653333D01*
X160107619Y-84272380D02*
X160012380Y-84224761D01*
X159964761Y-84177142D01*
X159917142Y-84081904D01*
X159917142Y-83796190D01*
X159964761Y-83700952D01*
X160012380Y-83653333D01*
X160107619Y-83605714D01*
X160250476Y-83605714D01*
X160345714Y-83653333D01*
X160393333Y-83700952D01*
X160440952Y-83796190D01*
X160440952Y-84081904D01*
X160393333Y-84177142D01*
X160345714Y-84224761D01*
X160250476Y-84272380D01*
X160107619Y-84272380D01*
X161631428Y-83748571D02*
X161964761Y-83748571D01*
X162107619Y-84272380D02*
X161631428Y-84272380D01*
X161631428Y-83272380D01*
X162107619Y-83272380D01*
X162488571Y-84224761D02*
X162631428Y-84272380D01*
X162869523Y-84272380D01*
X162964761Y-84224761D01*
X163012380Y-84177142D01*
X163060000Y-84081904D01*
X163060000Y-83986666D01*
X163012380Y-83891428D01*
X162964761Y-83843809D01*
X162869523Y-83796190D01*
X162679047Y-83748571D01*
X162583809Y-83700952D01*
X162536190Y-83653333D01*
X162488571Y-83558095D01*
X162488571Y-83462857D01*
X162536190Y-83367619D01*
X162583809Y-83320000D01*
X162679047Y-83272380D01*
X162917142Y-83272380D01*
X163060000Y-83320000D01*
X163488571Y-84272380D02*
X163488571Y-83272380D01*
X163869523Y-83272380D01*
X163964761Y-83320000D01*
X164012380Y-83367619D01*
X164060000Y-83462857D01*
X164060000Y-83605714D01*
X164012380Y-83700952D01*
X163964761Y-83748571D01*
X163869523Y-83796190D01*
X163488571Y-83796190D01*
X164393333Y-83272380D02*
X165012380Y-83272380D01*
X164679047Y-83653333D01*
X164821904Y-83653333D01*
X164917142Y-83700952D01*
X164964761Y-83748571D01*
X165012380Y-83843809D01*
X165012380Y-84081904D01*
X164964761Y-84177142D01*
X164917142Y-84224761D01*
X164821904Y-84272380D01*
X164536190Y-84272380D01*
X164440952Y-84224761D01*
X164393333Y-84177142D01*
X165393333Y-83367619D02*
X165440952Y-83320000D01*
X165536190Y-83272380D01*
X165774285Y-83272380D01*
X165869523Y-83320000D01*
X165917142Y-83367619D01*
X165964761Y-83462857D01*
X165964761Y-83558095D01*
X165917142Y-83700952D01*
X165345714Y-84272380D01*
X165964761Y-84272380D01*
X167726666Y-84177142D02*
X167679047Y-84224761D01*
X167536190Y-84272380D01*
X167440952Y-84272380D01*
X167298095Y-84224761D01*
X167202857Y-84129523D01*
X167155238Y-84034285D01*
X167107619Y-83843809D01*
X167107619Y-83700952D01*
X167155238Y-83510476D01*
X167202857Y-83415238D01*
X167298095Y-83320000D01*
X167440952Y-83272380D01*
X167536190Y-83272380D01*
X167679047Y-83320000D01*
X167726666Y-83367619D01*
X168060000Y-83272380D02*
X168679047Y-83272380D01*
X168345714Y-83653333D01*
X168488571Y-83653333D01*
X168583809Y-83700952D01*
X168631428Y-83748571D01*
X168679047Y-83843809D01*
X168679047Y-84081904D01*
X168631428Y-84177142D01*
X168583809Y-84224761D01*
X168488571Y-84272380D01*
X168202857Y-84272380D01*
X168107619Y-84224761D01*
X168060000Y-84177142D01*
X101219047Y-81351428D02*
X101980952Y-81351428D01*
X139319047Y-66111428D02*
X140080952Y-66111428D01*
X133596190Y-102052380D02*
X133262857Y-101576190D01*
X133024761Y-102052380D02*
X133024761Y-101052380D01*
X133405714Y-101052380D01*
X133500952Y-101100000D01*
X133548571Y-101147619D01*
X133596190Y-101242857D01*
X133596190Y-101385714D01*
X133548571Y-101480952D01*
X133500952Y-101528571D01*
X133405714Y-101576190D01*
X133024761Y-101576190D01*
X134310476Y-101052380D02*
X134310476Y-101766666D01*
X134262857Y-101909523D01*
X134167619Y-102004761D01*
X134024761Y-102052380D01*
X133929523Y-102052380D01*
X135215238Y-101385714D02*
X135215238Y-102052380D01*
X134977142Y-101004761D02*
X134739047Y-101719047D01*
X135358095Y-101719047D01*
X136215238Y-101052380D02*
X135739047Y-101052380D01*
X135691428Y-101528571D01*
X135739047Y-101480952D01*
X135834285Y-101433333D01*
X136072380Y-101433333D01*
X136167619Y-101480952D01*
X136215238Y-101528571D01*
X136262857Y-101623809D01*
X136262857Y-101861904D01*
X136215238Y-101957142D01*
X136167619Y-102004761D01*
X136072380Y-102052380D01*
X135834285Y-102052380D01*
X135739047Y-102004761D01*
X135691428Y-101957142D01*
X98036190Y-99512380D02*
X97702857Y-99036190D01*
X97464761Y-99512380D02*
X97464761Y-98512380D01*
X97845714Y-98512380D01*
X97940952Y-98560000D01*
X97988571Y-98607619D01*
X98036190Y-98702857D01*
X98036190Y-98845714D01*
X97988571Y-98940952D01*
X97940952Y-98988571D01*
X97845714Y-99036190D01*
X97464761Y-99036190D01*
X98750476Y-98512380D02*
X98750476Y-99226666D01*
X98702857Y-99369523D01*
X98607619Y-99464761D01*
X98464761Y-99512380D01*
X98369523Y-99512380D01*
X99655238Y-98845714D02*
X99655238Y-99512380D01*
X99417142Y-98464761D02*
X99179047Y-99179047D01*
X99798095Y-99179047D01*
X100655238Y-98512380D02*
X100179047Y-98512380D01*
X100131428Y-98988571D01*
X100179047Y-98940952D01*
X100274285Y-98893333D01*
X100512380Y-98893333D01*
X100607619Y-98940952D01*
X100655238Y-98988571D01*
X100702857Y-99083809D01*
X100702857Y-99321904D01*
X100655238Y-99417142D01*
X100607619Y-99464761D01*
X100512380Y-99512380D01*
X100274285Y-99512380D01*
X100179047Y-99464761D01*
X100131428Y-99417142D01*
X108839047Y-81351428D02*
X109600952Y-81351428D01*
X109220000Y-81732380D02*
X109220000Y-80970476D01*
%TO.C,*%
%TO.C,REF\u002A\u002A*%
X127422380Y-81983333D02*
X126946190Y-82316666D01*
X127422380Y-82554761D02*
X126422380Y-82554761D01*
X126422380Y-82173809D01*
X126470000Y-82078571D01*
X126517619Y-82030952D01*
X126612857Y-81983333D01*
X126755714Y-81983333D01*
X126850952Y-82030952D01*
X126898571Y-82078571D01*
X126946190Y-82173809D01*
X126946190Y-82554761D01*
X126898571Y-81554761D02*
X126898571Y-81221428D01*
X127422380Y-81078571D02*
X127422380Y-81554761D01*
X126422380Y-81554761D01*
X126422380Y-81078571D01*
X126898571Y-80316666D02*
X126898571Y-80650000D01*
X127422380Y-80650000D02*
X126422380Y-80650000D01*
X126422380Y-80173809D01*
X126422380Y-79650000D02*
X126660476Y-79650000D01*
X126565238Y-79888095D02*
X126660476Y-79650000D01*
X126565238Y-79411904D01*
X126850952Y-79792857D02*
X126660476Y-79650000D01*
X126850952Y-79507142D01*
X126422380Y-78888095D02*
X126660476Y-78888095D01*
X126565238Y-79126190D02*
X126660476Y-78888095D01*
X126565238Y-78650000D01*
X126850952Y-79030952D02*
X126660476Y-78888095D01*
X126850952Y-78745238D01*
%TO.C,*%
%TO.C,REF\u002A\u002A*%
X159956666Y-95242380D02*
X159623333Y-94766190D01*
X159385238Y-95242380D02*
X159385238Y-94242380D01*
X159766190Y-94242380D01*
X159861428Y-94290000D01*
X159909047Y-94337619D01*
X159956666Y-94432857D01*
X159956666Y-94575714D01*
X159909047Y-94670952D01*
X159861428Y-94718571D01*
X159766190Y-94766190D01*
X159385238Y-94766190D01*
X160385238Y-94718571D02*
X160718571Y-94718571D01*
X160861428Y-95242380D02*
X160385238Y-95242380D01*
X160385238Y-94242380D01*
X160861428Y-94242380D01*
X161623333Y-94718571D02*
X161290000Y-94718571D01*
X161290000Y-95242380D02*
X161290000Y-94242380D01*
X161766190Y-94242380D01*
X162290000Y-94242380D02*
X162290000Y-94480476D01*
X162051904Y-94385238D02*
X162290000Y-94480476D01*
X162528095Y-94385238D01*
X162147142Y-94670952D02*
X162290000Y-94480476D01*
X162432857Y-94670952D01*
X163051904Y-94242380D02*
X163051904Y-94480476D01*
X162813809Y-94385238D02*
X163051904Y-94480476D01*
X163290000Y-94385238D01*
X162909047Y-94670952D02*
X163051904Y-94480476D01*
X163194761Y-94670952D01*
X151360833Y-74613333D02*
X151394166Y-74580000D01*
X151460833Y-74546666D01*
X151627500Y-74546666D01*
X151694166Y-74580000D01*
X151727500Y-74613333D01*
X151760833Y-74680000D01*
X151760833Y-74746666D01*
X151727500Y-74846666D01*
X151327500Y-75246666D01*
X151760833Y-75246666D01*
X151327500Y-84706666D02*
X151794166Y-84706666D01*
X151494166Y-85406666D01*
X161023333Y-102920000D02*
X161556666Y-102920000D01*
X161290000Y-103186666D02*
X161290000Y-102653333D01*
X169985833Y-89786666D02*
X169652500Y-89786666D01*
X169619166Y-90120000D01*
X169652500Y-90086666D01*
X169719166Y-90053333D01*
X169885833Y-90053333D01*
X169952500Y-90086666D01*
X169985833Y-90120000D01*
X170019166Y-90186666D01*
X170019166Y-90353333D01*
X169985833Y-90420000D01*
X169952500Y-90453333D01*
X169885833Y-90486666D01*
X169719166Y-90486666D01*
X169652500Y-90453333D01*
X169619166Y-90420000D01*
X170252500Y-90020000D02*
X170419166Y-90486666D01*
X170585833Y-90020000D01*
X171185833Y-89786666D02*
X170852500Y-89786666D01*
X170819166Y-90120000D01*
X170852500Y-90086666D01*
X170919166Y-90053333D01*
X171085833Y-90053333D01*
X171152500Y-90086666D01*
X171185833Y-90120000D01*
X171219166Y-90186666D01*
X171219166Y-90353333D01*
X171185833Y-90420000D01*
X171152500Y-90453333D01*
X171085833Y-90486666D01*
X170919166Y-90486666D01*
X170852500Y-90453333D01*
X170819166Y-90420000D01*
X170552500Y-77786666D02*
X170152500Y-77786666D01*
X170352500Y-77786666D02*
X170352500Y-77086666D01*
X170285833Y-77186666D01*
X170219166Y-77253333D01*
X170152500Y-77286666D01*
X170885833Y-77786666D02*
X171019166Y-77786666D01*
X171085833Y-77753333D01*
X171119166Y-77720000D01*
X171185833Y-77620000D01*
X171219166Y-77486666D01*
X171219166Y-77220000D01*
X171185833Y-77153333D01*
X171152500Y-77120000D01*
X171085833Y-77086666D01*
X170952500Y-77086666D01*
X170885833Y-77120000D01*
X170852500Y-77153333D01*
X170819166Y-77220000D01*
X170819166Y-77386666D01*
X170852500Y-77453333D01*
X170885833Y-77486666D01*
X170952500Y-77520000D01*
X171085833Y-77520000D01*
X171152500Y-77486666D01*
X171185833Y-77453333D01*
X171219166Y-77386666D01*
X151327500Y-89786666D02*
X151760833Y-89786666D01*
X151527500Y-90053333D01*
X151627500Y-90053333D01*
X151694166Y-90086666D01*
X151727500Y-90120000D01*
X151760833Y-90186666D01*
X151760833Y-90353333D01*
X151727500Y-90420000D01*
X151694166Y-90453333D01*
X151627500Y-90486666D01*
X151427500Y-90486666D01*
X151360833Y-90453333D01*
X151327500Y-90420000D01*
X151994166Y-90020000D02*
X152160833Y-90486666D01*
X152327500Y-90020000D01*
X152527500Y-89786666D02*
X152960833Y-89786666D01*
X152727500Y-90053333D01*
X152827500Y-90053333D01*
X152894166Y-90086666D01*
X152927500Y-90120000D01*
X152960833Y-90186666D01*
X152960833Y-90353333D01*
X152927500Y-90420000D01*
X152894166Y-90453333D01*
X152827500Y-90486666D01*
X152627500Y-90486666D01*
X152560833Y-90453333D01*
X152527500Y-90420000D01*
X170209642Y-80462380D02*
X169638214Y-80462380D01*
X169923928Y-80462380D02*
X169923928Y-79462380D01*
X169828690Y-79605238D01*
X169733452Y-79700476D01*
X169638214Y-79748095D01*
X170781071Y-79890952D02*
X170685833Y-79843333D01*
X170638214Y-79795714D01*
X170590595Y-79700476D01*
X170590595Y-79652857D01*
X170638214Y-79557619D01*
X170685833Y-79510000D01*
X170781071Y-79462380D01*
X170971547Y-79462380D01*
X171066785Y-79510000D01*
X171114404Y-79557619D01*
X171162023Y-79652857D01*
X171162023Y-79700476D01*
X171114404Y-79795714D01*
X171066785Y-79843333D01*
X170971547Y-79890952D01*
X170781071Y-79890952D01*
X170685833Y-79938571D01*
X170638214Y-79986190D01*
X170590595Y-80081428D01*
X170590595Y-80271904D01*
X170638214Y-80367142D01*
X170685833Y-80414761D01*
X170781071Y-80462380D01*
X170971547Y-80462380D01*
X171066785Y-80414761D01*
X171114404Y-80367142D01*
X171162023Y-80271904D01*
X171162023Y-80081428D01*
X171114404Y-79986190D01*
X171066785Y-79938571D01*
X170971547Y-79890952D01*
X151794166Y-72706666D02*
X151560833Y-72373333D01*
X151394166Y-72706666D02*
X151394166Y-72006666D01*
X151660833Y-72006666D01*
X151727500Y-72040000D01*
X151760833Y-72073333D01*
X151794166Y-72140000D01*
X151794166Y-72240000D01*
X151760833Y-72306666D01*
X151727500Y-72340000D01*
X151660833Y-72373333D01*
X151394166Y-72373333D01*
X152060833Y-72673333D02*
X152160833Y-72706666D01*
X152327500Y-72706666D01*
X152394166Y-72673333D01*
X152427500Y-72640000D01*
X152460833Y-72573333D01*
X152460833Y-72506666D01*
X152427500Y-72440000D01*
X152394166Y-72406666D01*
X152327500Y-72373333D01*
X152194166Y-72340000D01*
X152127500Y-72306666D01*
X152094166Y-72273333D01*
X152060833Y-72206666D01*
X152060833Y-72140000D01*
X152094166Y-72073333D01*
X152127500Y-72040000D01*
X152194166Y-72006666D01*
X152360833Y-72006666D01*
X152460833Y-72040000D01*
X152660833Y-72006666D02*
X153060833Y-72006666D01*
X152860833Y-72706666D02*
X152860833Y-72006666D01*
X151694166Y-82166666D02*
X151560833Y-82166666D01*
X151494166Y-82200000D01*
X151460833Y-82233333D01*
X151394166Y-82333333D01*
X151360833Y-82466666D01*
X151360833Y-82733333D01*
X151394166Y-82800000D01*
X151427500Y-82833333D01*
X151494166Y-82866666D01*
X151627500Y-82866666D01*
X151694166Y-82833333D01*
X151727500Y-82800000D01*
X151760833Y-82733333D01*
X151760833Y-82566666D01*
X151727500Y-82500000D01*
X151694166Y-82466666D01*
X151627500Y-82433333D01*
X151494166Y-82433333D01*
X151427500Y-82466666D01*
X151394166Y-82500000D01*
X151360833Y-82566666D01*
X151694166Y-77320000D02*
X151694166Y-77786666D01*
X151527500Y-77053333D02*
X151360833Y-77553333D01*
X151794166Y-77553333D01*
X151727500Y-79626666D02*
X151394166Y-79626666D01*
X151360833Y-79960000D01*
X151394166Y-79926666D01*
X151460833Y-79893333D01*
X151627500Y-79893333D01*
X151694166Y-79926666D01*
X151727500Y-79960000D01*
X151760833Y-80026666D01*
X151760833Y-80193333D01*
X151727500Y-80260000D01*
X151694166Y-80293333D01*
X151627500Y-80326666D01*
X151460833Y-80326666D01*
X151394166Y-80293333D01*
X151360833Y-80260000D01*
X151760833Y-87946666D02*
X151360833Y-87946666D01*
X151560833Y-87946666D02*
X151560833Y-87246666D01*
X151494166Y-87346666D01*
X151427500Y-87413333D01*
X151360833Y-87446666D01*
X152194166Y-87246666D02*
X152260833Y-87246666D01*
X152327500Y-87280000D01*
X152360833Y-87313333D01*
X152394166Y-87380000D01*
X152427500Y-87513333D01*
X152427500Y-87680000D01*
X152394166Y-87813333D01*
X152360833Y-87880000D01*
X152327500Y-87913333D01*
X152260833Y-87946666D01*
X152194166Y-87946666D01*
X152127500Y-87913333D01*
X152094166Y-87880000D01*
X152060833Y-87813333D01*
X152027500Y-87680000D01*
X152027500Y-87513333D01*
X152060833Y-87380000D01*
X152094166Y-87313333D01*
X152127500Y-87280000D01*
X152194166Y-87246666D01*
X161023333Y-69900000D02*
X161556666Y-69900000D01*
X169519166Y-72006666D02*
X169919166Y-72006666D01*
X169719166Y-72706666D02*
X169719166Y-72006666D01*
X170085833Y-72006666D02*
X170552500Y-72706666D01*
X170552500Y-72006666D02*
X170085833Y-72706666D01*
X170819166Y-72706666D02*
X170819166Y-72006666D01*
X170985833Y-72006666D01*
X171085833Y-72040000D01*
X171152500Y-72106666D01*
X171185833Y-72173333D01*
X171219166Y-72306666D01*
X171219166Y-72406666D01*
X171185833Y-72540000D01*
X171152500Y-72606666D01*
X171085833Y-72673333D01*
X170985833Y-72706666D01*
X170819166Y-72706666D01*
X170952500Y-85006666D02*
X170885833Y-84973333D01*
X170852500Y-84940000D01*
X170819166Y-84873333D01*
X170819166Y-84840000D01*
X170852500Y-84773333D01*
X170885833Y-84740000D01*
X170952500Y-84706666D01*
X171085833Y-84706666D01*
X171152500Y-84740000D01*
X171185833Y-84773333D01*
X171219166Y-84840000D01*
X171219166Y-84873333D01*
X171185833Y-84940000D01*
X171152500Y-84973333D01*
X171085833Y-85006666D01*
X170952500Y-85006666D01*
X170885833Y-85040000D01*
X170852500Y-85073333D01*
X170819166Y-85140000D01*
X170819166Y-85273333D01*
X170852500Y-85340000D01*
X170885833Y-85373333D01*
X170952500Y-85406666D01*
X171085833Y-85406666D01*
X171152500Y-85373333D01*
X171185833Y-85340000D01*
X171219166Y-85273333D01*
X171219166Y-85140000D01*
X171185833Y-85073333D01*
X171152500Y-85040000D01*
X171085833Y-85006666D01*
X170885833Y-82866666D02*
X171019166Y-82866666D01*
X171085833Y-82833333D01*
X171119166Y-82800000D01*
X171185833Y-82700000D01*
X171219166Y-82566666D01*
X171219166Y-82300000D01*
X171185833Y-82233333D01*
X171152500Y-82200000D01*
X171085833Y-82166666D01*
X170952500Y-82166666D01*
X170885833Y-82200000D01*
X170852500Y-82233333D01*
X170819166Y-82300000D01*
X170819166Y-82466666D01*
X170852500Y-82533333D01*
X170885833Y-82566666D01*
X170952500Y-82600000D01*
X171085833Y-82600000D01*
X171152500Y-82566666D01*
X171185833Y-82533333D01*
X171219166Y-82466666D01*
X169852500Y-75246666D02*
X169619166Y-74913333D01*
X169452500Y-75246666D02*
X169452500Y-74546666D01*
X169719166Y-74546666D01*
X169785833Y-74580000D01*
X169819166Y-74613333D01*
X169852500Y-74680000D01*
X169852500Y-74780000D01*
X169819166Y-74846666D01*
X169785833Y-74880000D01*
X169719166Y-74913333D01*
X169452500Y-74913333D01*
X170085833Y-74546666D02*
X170552500Y-75246666D01*
X170552500Y-74546666D02*
X170085833Y-75246666D01*
X170819166Y-75246666D02*
X170819166Y-74546666D01*
X170985833Y-74546666D01*
X171085833Y-74580000D01*
X171152500Y-74646666D01*
X171185833Y-74713333D01*
X171219166Y-74846666D01*
X171219166Y-74946666D01*
X171185833Y-75080000D01*
X171152500Y-75146666D01*
X171085833Y-75213333D01*
X170985833Y-75246666D01*
X170819166Y-75246666D01*
X169752500Y-87280000D02*
X169685833Y-87246666D01*
X169585833Y-87246666D01*
X169485833Y-87280000D01*
X169419166Y-87346666D01*
X169385833Y-87413333D01*
X169352500Y-87546666D01*
X169352500Y-87646666D01*
X169385833Y-87780000D01*
X169419166Y-87846666D01*
X169485833Y-87913333D01*
X169585833Y-87946666D01*
X169652500Y-87946666D01*
X169752500Y-87913333D01*
X169785833Y-87880000D01*
X169785833Y-87646666D01*
X169652500Y-87646666D01*
X170085833Y-87946666D02*
X170085833Y-87246666D01*
X170485833Y-87946666D01*
X170485833Y-87246666D01*
X170819166Y-87946666D02*
X170819166Y-87246666D01*
X170985833Y-87246666D01*
X171085833Y-87280000D01*
X171152500Y-87346666D01*
X171185833Y-87413333D01*
X171219166Y-87546666D01*
X171219166Y-87646666D01*
X171185833Y-87780000D01*
X171152500Y-87846666D01*
X171085833Y-87913333D01*
X170985833Y-87946666D01*
X170819166Y-87946666D01*
%TO.C,*%
%TO.C,REF\u002A\u002A*%
X90601130Y-99763333D02*
X90124940Y-100096666D01*
X90601130Y-100334761D02*
X89601130Y-100334761D01*
X89601130Y-99953809D01*
X89648750Y-99858571D01*
X89696369Y-99810952D01*
X89791607Y-99763333D01*
X89934464Y-99763333D01*
X90029702Y-99810952D01*
X90077321Y-99858571D01*
X90124940Y-99953809D01*
X90124940Y-100334761D01*
X90077321Y-99334761D02*
X90077321Y-99001428D01*
X90601130Y-98858571D02*
X90601130Y-99334761D01*
X89601130Y-99334761D01*
X89601130Y-98858571D01*
X90077321Y-98096666D02*
X90077321Y-98430000D01*
X90601130Y-98430000D02*
X89601130Y-98430000D01*
X89601130Y-97953809D01*
X89601130Y-97430000D02*
X89839226Y-97430000D01*
X89743988Y-97668095D02*
X89839226Y-97430000D01*
X89743988Y-97191904D01*
X90029702Y-97572857D02*
X89839226Y-97430000D01*
X90029702Y-97287142D01*
X89601130Y-96668095D02*
X89839226Y-96668095D01*
X89743988Y-96906190D02*
X89839226Y-96668095D01*
X89743988Y-96430000D01*
X90029702Y-96810952D02*
X89839226Y-96668095D01*
X90029702Y-96525238D01*
%TO.C,*%
%TO.C,REF\u002A\u002A*%
X126922380Y-103055833D02*
X126446190Y-103389166D01*
X126922380Y-103627261D02*
X125922380Y-103627261D01*
X125922380Y-103246309D01*
X125970000Y-103151071D01*
X126017619Y-103103452D01*
X126112857Y-103055833D01*
X126255714Y-103055833D01*
X126350952Y-103103452D01*
X126398571Y-103151071D01*
X126446190Y-103246309D01*
X126446190Y-103627261D01*
X126398571Y-102627261D02*
X126398571Y-102293928D01*
X126922380Y-102151071D02*
X126922380Y-102627261D01*
X125922380Y-102627261D01*
X125922380Y-102151071D01*
X126398571Y-101389166D02*
X126398571Y-101722500D01*
X126922380Y-101722500D02*
X125922380Y-101722500D01*
X125922380Y-101246309D01*
X125922380Y-100722500D02*
X126160476Y-100722500D01*
X126065238Y-100960595D02*
X126160476Y-100722500D01*
X126065238Y-100484404D01*
X126350952Y-100865357D02*
X126160476Y-100722500D01*
X126350952Y-100579642D01*
X125922380Y-99960595D02*
X126160476Y-99960595D01*
X126065238Y-100198690D02*
X126160476Y-99960595D01*
X126065238Y-99722500D01*
X126350952Y-100103452D02*
X126160476Y-99960595D01*
X126350952Y-99817738D01*
%TO.C,*%
D11*
%TO.C,REF\u002A\u002A*%
X140470000Y-72200000D02*
X140970000Y-72700000D01*
X128020000Y-88510000D02*
X128020000Y-72780000D01*
X140970000Y-72700000D02*
X141470000Y-72200000D01*
X144760000Y-72780000D02*
X128020000Y-72780000D01*
X144760000Y-88510000D02*
X128020000Y-88510000D01*
X144760000Y-88500000D02*
X144760000Y-72780000D01*
X141470000Y-72200000D02*
X140470000Y-72200000D01*
X148590000Y-64770000D02*
X174090000Y-64770000D01*
X174090000Y-64770000D02*
X174090000Y-108970000D01*
X174090000Y-108970000D02*
X148590000Y-108970000D01*
X148590000Y-108970000D02*
X148590000Y-64770000D01*
X104648750Y-89980000D02*
X103648750Y-89980000D01*
X107938750Y-90560000D02*
X91198750Y-90560000D01*
X107938750Y-106290000D02*
X91198750Y-106290000D01*
X104148750Y-90480000D02*
X104648750Y-89980000D01*
X91198750Y-106290000D02*
X91198750Y-90560000D01*
X107938750Y-106280000D02*
X107938750Y-90560000D01*
X103648750Y-89980000D02*
X104148750Y-90480000D01*
X144260000Y-109572500D02*
X144260000Y-93852500D01*
X144260000Y-109582500D02*
X127520000Y-109582500D01*
X127520000Y-109582500D02*
X127520000Y-93852500D01*
X139970000Y-93272500D02*
X140470000Y-93772500D01*
X140470000Y-93772500D02*
X140970000Y-93272500D01*
X144260000Y-93852500D02*
X127520000Y-93852500D01*
X140970000Y-93272500D02*
X139970000Y-93272500D01*
%TD*%
D12*
%TO.C,REF\u002A\u002A*%
X134620000Y-86360000D03*
X134620000Y-74930000D03*
%TD*%
%TO.C,REF\u002A\u002A*%
X97798750Y-104140000D03*
X97798750Y-92710000D03*
%TD*%
%TO.C,REF\u002A\u002A*%
X134120000Y-107432500D03*
X134120000Y-96002500D03*
%TD*%
%LPC*%
D13*
%TO.C,*%
X118618750Y-104657500D03*
%TD*%
%TO.C,*%
X118618750Y-97037500D03*
%TD*%
%TO.C,*%
X180340000Y-72390000D03*
%TD*%
%TO.C,*%
X118618750Y-91957500D03*
%TD*%
%TO.C,*%
X138430000Y-66040000D03*
%TD*%
%TO.C,*%
X180340000Y-77470000D03*
%TD*%
%TO.C,*%
X118618750Y-102117500D03*
%TD*%
D12*
%TO.C,REF\u002A\u002A*%
X134620000Y-86360000D03*
X134620000Y-74930000D03*
D14*
X140970000Y-76200000D03*
D15*
X143510000Y-77470000D03*
X140970000Y-78740000D03*
X143510000Y-80010000D03*
X140970000Y-81280000D03*
X143510000Y-82550000D03*
X140970000Y-83820000D03*
X143510000Y-85090000D03*
%TD*%
D13*
%TO.C,*%
X180340000Y-80010000D03*
%TD*%
%TO.C,*%
X102108750Y-83067500D03*
%TD*%
%TO.C,*%
X118618750Y-99577500D03*
%TD*%
%TO.C,REF\u002A\u002A*%
X161290000Y-67310000D03*
X161290000Y-105410000D03*
X172720000Y-74930000D03*
X172720000Y-77470000D03*
X172720000Y-80010000D03*
X172720000Y-82550000D03*
X172720000Y-85090000D03*
X172720000Y-87630000D03*
X172720000Y-90170000D03*
D16*
X149890000Y-72390000D03*
D13*
X149860000Y-74930000D03*
X149860000Y-77470000D03*
X149860000Y-80010000D03*
X149860000Y-82550000D03*
X149860000Y-85090000D03*
X149860000Y-87630000D03*
X149860000Y-90170000D03*
D16*
X172720000Y-72390000D03*
%TD*%
D13*
%TO.C,*%
X180340000Y-82550000D03*
%TD*%
D12*
%TO.C,REF\u002A\u002A*%
X97798750Y-104140000D03*
X97798750Y-92710000D03*
D14*
X104148750Y-93980000D03*
D15*
X106688750Y-95250000D03*
X104148750Y-96520000D03*
X106688750Y-97790000D03*
X104148750Y-99060000D03*
X106688750Y-100330000D03*
X104148750Y-101600000D03*
X106688750Y-102870000D03*
%TD*%
D13*
%TO.C,*%
X108458750Y-83067500D03*
%TD*%
D12*
%TO.C,REF\u002A\u002A*%
X134120000Y-107432500D03*
X134120000Y-96002500D03*
D14*
X140470000Y-97272500D03*
D15*
X143010000Y-98542500D03*
X140470000Y-99812500D03*
X143010000Y-101082500D03*
X140470000Y-102352500D03*
X143010000Y-103622500D03*
X140470000Y-104892500D03*
X143010000Y-106162500D03*
%TD*%
D13*
%TO.C,*%
X154940000Y-78740000D03*
%TD*%
%TO.C,*%
X118618750Y-94497500D03*
%TD*%
%TO.C,*%
X154940000Y-93980000D03*
%TD*%
%TO.C,*%
X144780000Y-69850000D03*
%TD*%
%TO.C,*%
X180340000Y-74930000D03*
%TD*%
M02*
