M48
; DRILL file {KiCad (6.0.8-1)-1} date Thursday, May 11, 2023 at 03:02:45 PM
; FORMAT={-:-/ absolute / metric / decimal}
; #@! TF.CreationDate,2023-05-11T15:02:45-07:00
; #@! TF.GenerationSoftware,Kicad,Pcbnew,(6.0.8-1)-1
; #@! TF.FileFunction,Plated,1,2,PTH
FMAT,2
METRIC
; #@! TA.AperFunction,Plated,PTH,ComponentDrill
T1C0.762
; #@! TA.AperFunction,Plated,PTH,ComponentDrill
T2C0.900
%
G90
G05
T1
X102.109Y-83.067
X108.459Y-83.067
X118.619Y-91.957
X118.619Y-94.498
X118.619Y-97.037
X118.619Y-99.578
X118.619Y-102.117
X118.619Y-104.657
X138.43Y-66.04
X144.78Y-69.85
X149.86Y-74.93
X149.86Y-77.47
X149.86Y-80.01
X149.86Y-82.55
X149.86Y-85.09
X149.86Y-87.63
X149.86Y-90.17
X149.89Y-72.39
X154.94Y-78.74
X154.94Y-93.98
X161.29Y-67.31
X161.29Y-105.41
X172.72Y-72.39
X172.72Y-74.93
X172.72Y-77.47
X172.72Y-80.01
X172.72Y-82.55
X172.72Y-85.09
X172.72Y-87.63
X172.72Y-90.17
X180.34Y-72.39
X180.34Y-74.93
X180.34Y-77.47
X180.34Y-80.01
X180.34Y-82.55
T2
X104.149Y-93.98
X104.149Y-96.52
X104.149Y-99.06
X104.149Y-101.6
X106.689Y-95.25
X106.689Y-97.79
X106.689Y-100.33
X106.689Y-102.87
X140.47Y-97.272
X140.47Y-99.812
X140.47Y-102.352
X140.47Y-104.892
X140.97Y-76.2
X140.97Y-78.74
X140.97Y-81.28
X140.97Y-83.82
X143.01Y-98.542
X143.01Y-101.082
X143.01Y-103.623
X143.01Y-106.162
X143.51Y-77.47
X143.51Y-80.01
X143.51Y-82.55
X143.51Y-85.09
T0
M30
