%TF.GenerationSoftware,KiCad,Pcbnew,(6.0.8-1)-1*%
%TF.CreationDate,2023-05-11T15:02:42-07:00*%
%TF.ProjectId,rainus2.0,7261696e-7573-4322-9e30-2e6b69636164,rev?*%
%TF.SameCoordinates,Original*%
%TF.FileFunction,Legend,Bot*%
%TF.FilePolarity,Positive*%
%FSLAX46Y46*%
G04 Gerber Fmt 4.6, Leading zero omitted, Abs format (unit mm)*
G04 Created by KiCad (PCBNEW (6.0.8-1)-1) date 2023-05-11 15:02:42*
%MOMM*%
%LPD*%
G01*
G04 APERTURE LIST*
%ADD10C,0.150000*%
%ADD11C,3.650000*%
%ADD12C,1.524000*%
%ADD13R,1.500000X1.500000*%
%ADD14C,1.500000*%
%ADD15O,1.524000X1.524000*%
G04 APERTURE END LIST*
D10*
X111211904Y-86937380D02*
X111545238Y-86461190D01*
X111783333Y-86937380D02*
X111783333Y-85937380D01*
X111402380Y-85937380D01*
X111307142Y-85985000D01*
X111259523Y-86032619D01*
X111211904Y-86127857D01*
X111211904Y-86270714D01*
X111259523Y-86365952D01*
X111307142Y-86413571D01*
X111402380Y-86461190D01*
X111783333Y-86461190D01*
X110354761Y-86937380D02*
X110354761Y-86413571D01*
X110402380Y-86318333D01*
X110497619Y-86270714D01*
X110688095Y-86270714D01*
X110783333Y-86318333D01*
X110354761Y-86889761D02*
X110450000Y-86937380D01*
X110688095Y-86937380D01*
X110783333Y-86889761D01*
X110830952Y-86794523D01*
X110830952Y-86699285D01*
X110783333Y-86604047D01*
X110688095Y-86556428D01*
X110450000Y-86556428D01*
X110354761Y-86508809D01*
X109878571Y-86937380D02*
X109878571Y-86270714D01*
X109878571Y-85937380D02*
X109926190Y-85985000D01*
X109878571Y-86032619D01*
X109830952Y-85985000D01*
X109878571Y-85937380D01*
X109878571Y-86032619D01*
X109402380Y-86270714D02*
X109402380Y-86937380D01*
X109402380Y-86365952D02*
X109354761Y-86318333D01*
X109259523Y-86270714D01*
X109116666Y-86270714D01*
X109021428Y-86318333D01*
X108973809Y-86413571D01*
X108973809Y-86937380D01*
X108069047Y-86270714D02*
X108069047Y-86937380D01*
X108497619Y-86270714D02*
X108497619Y-86794523D01*
X108450000Y-86889761D01*
X108354761Y-86937380D01*
X108211904Y-86937380D01*
X108116666Y-86889761D01*
X108069047Y-86842142D01*
X107640476Y-86889761D02*
X107545238Y-86937380D01*
X107354761Y-86937380D01*
X107259523Y-86889761D01*
X107211904Y-86794523D01*
X107211904Y-86746904D01*
X107259523Y-86651666D01*
X107354761Y-86604047D01*
X107497619Y-86604047D01*
X107592857Y-86556428D01*
X107640476Y-86461190D01*
X107640476Y-86413571D01*
X107592857Y-86318333D01*
X107497619Y-86270714D01*
X107354761Y-86270714D01*
X107259523Y-86318333D01*
X106069047Y-86032619D02*
X106021428Y-85985000D01*
X105926190Y-85937380D01*
X105688095Y-85937380D01*
X105592857Y-85985000D01*
X105545238Y-86032619D01*
X105497619Y-86127857D01*
X105497619Y-86223095D01*
X105545238Y-86365952D01*
X106116666Y-86937380D01*
X105497619Y-86937380D01*
X105069047Y-86842142D02*
X105021428Y-86889761D01*
X105069047Y-86937380D01*
X105116666Y-86889761D01*
X105069047Y-86842142D01*
X105069047Y-86937380D01*
X104402380Y-85937380D02*
X104307142Y-85937380D01*
X104211904Y-85985000D01*
X104164285Y-86032619D01*
X104116666Y-86127857D01*
X104069047Y-86318333D01*
X104069047Y-86556428D01*
X104116666Y-86746904D01*
X104164285Y-86842142D01*
X104211904Y-86889761D01*
X104307142Y-86937380D01*
X104402380Y-86937380D01*
X104497619Y-86889761D01*
X104545238Y-86842142D01*
X104592857Y-86746904D01*
X104640476Y-86556428D01*
X104640476Y-86318333D01*
X104592857Y-86127857D01*
X104545238Y-86032619D01*
X104497619Y-85985000D01*
X104402380Y-85937380D01*
X119259523Y-87880714D02*
X119259523Y-88690238D01*
X119307142Y-88785476D01*
X119354761Y-88833095D01*
X119450000Y-88880714D01*
X119592857Y-88880714D01*
X119688095Y-88833095D01*
X119259523Y-88499761D02*
X119354761Y-88547380D01*
X119545238Y-88547380D01*
X119640476Y-88499761D01*
X119688095Y-88452142D01*
X119735714Y-88356904D01*
X119735714Y-88071190D01*
X119688095Y-87975952D01*
X119640476Y-87928333D01*
X119545238Y-87880714D01*
X119354761Y-87880714D01*
X119259523Y-87928333D01*
X118783333Y-88547380D02*
X118783333Y-87880714D01*
X118783333Y-87547380D02*
X118830952Y-87595000D01*
X118783333Y-87642619D01*
X118735714Y-87595000D01*
X118783333Y-87547380D01*
X118783333Y-87642619D01*
X118450000Y-87880714D02*
X118069047Y-87880714D01*
X118307142Y-87547380D02*
X118307142Y-88404523D01*
X118259523Y-88499761D01*
X118164285Y-88547380D01*
X118069047Y-88547380D01*
X117735714Y-88547380D02*
X117735714Y-87547380D01*
X117307142Y-88547380D02*
X117307142Y-88023571D01*
X117354761Y-87928333D01*
X117450000Y-87880714D01*
X117592857Y-87880714D01*
X117688095Y-87928333D01*
X117735714Y-87975952D01*
X116402380Y-87880714D02*
X116402380Y-88547380D01*
X116830952Y-87880714D02*
X116830952Y-88404523D01*
X116783333Y-88499761D01*
X116688095Y-88547380D01*
X116545238Y-88547380D01*
X116450000Y-88499761D01*
X116402380Y-88452142D01*
X115926190Y-88547380D02*
X115926190Y-87547380D01*
X115926190Y-87928333D02*
X115830952Y-87880714D01*
X115640476Y-87880714D01*
X115545238Y-87928333D01*
X115497619Y-87975952D01*
X115450000Y-88071190D01*
X115450000Y-88356904D01*
X115497619Y-88452142D01*
X115545238Y-88499761D01*
X115640476Y-88547380D01*
X115830952Y-88547380D01*
X115926190Y-88499761D01*
X115021428Y-88452142D02*
X114973809Y-88499761D01*
X115021428Y-88547380D01*
X115069047Y-88499761D01*
X115021428Y-88452142D01*
X115021428Y-88547380D01*
X114116666Y-88499761D02*
X114211904Y-88547380D01*
X114402380Y-88547380D01*
X114497619Y-88499761D01*
X114545238Y-88452142D01*
X114592857Y-88356904D01*
X114592857Y-88071190D01*
X114545238Y-87975952D01*
X114497619Y-87928333D01*
X114402380Y-87880714D01*
X114211904Y-87880714D01*
X114116666Y-87928333D01*
X113545238Y-88547380D02*
X113640476Y-88499761D01*
X113688095Y-88452142D01*
X113735714Y-88356904D01*
X113735714Y-88071190D01*
X113688095Y-87975952D01*
X113640476Y-87928333D01*
X113545238Y-87880714D01*
X113402380Y-87880714D01*
X113307142Y-87928333D01*
X113259523Y-87975952D01*
X113211904Y-88071190D01*
X113211904Y-88356904D01*
X113259523Y-88452142D01*
X113307142Y-88499761D01*
X113402380Y-88547380D01*
X113545238Y-88547380D01*
X112783333Y-88547380D02*
X112783333Y-87880714D01*
X112783333Y-87975952D02*
X112735714Y-87928333D01*
X112640476Y-87880714D01*
X112497619Y-87880714D01*
X112402380Y-87928333D01*
X112354761Y-88023571D01*
X112354761Y-88547380D01*
X112354761Y-88023571D02*
X112307142Y-87928333D01*
X112211904Y-87880714D01*
X112069047Y-87880714D01*
X111973809Y-87928333D01*
X111926190Y-88023571D01*
X111926190Y-88547380D01*
X110735714Y-87499761D02*
X111592857Y-88785476D01*
X110450000Y-88499761D02*
X110307142Y-88547380D01*
X110069047Y-88547380D01*
X109973809Y-88499761D01*
X109926190Y-88452142D01*
X109878571Y-88356904D01*
X109878571Y-88261666D01*
X109926190Y-88166428D01*
X109973809Y-88118809D01*
X110069047Y-88071190D01*
X110259523Y-88023571D01*
X110354761Y-87975952D01*
X110402380Y-87928333D01*
X110450000Y-87833095D01*
X110450000Y-87737857D01*
X110402380Y-87642619D01*
X110354761Y-87595000D01*
X110259523Y-87547380D01*
X110021428Y-87547380D01*
X109878571Y-87595000D01*
X109545238Y-87547380D02*
X109307142Y-88547380D01*
X109116666Y-87833095D01*
X108926190Y-88547380D01*
X108688095Y-87547380D01*
X108307142Y-88547380D02*
X108307142Y-87547380D01*
X107926190Y-87547380D01*
X107830952Y-87595000D01*
X107783333Y-87642619D01*
X107735714Y-87737857D01*
X107735714Y-87880714D01*
X107783333Y-87975952D01*
X107830952Y-88023571D01*
X107926190Y-88071190D01*
X108307142Y-88071190D01*
X107307142Y-88547380D02*
X107307142Y-87547380D01*
X106878571Y-88547380D02*
X106878571Y-88023571D01*
X106926190Y-87928333D01*
X107021428Y-87880714D01*
X107164285Y-87880714D01*
X107259523Y-87928333D01*
X107307142Y-87975952D01*
X105973809Y-88547380D02*
X105973809Y-88023571D01*
X106021428Y-87928333D01*
X106116666Y-87880714D01*
X106307142Y-87880714D01*
X106402380Y-87928333D01*
X105973809Y-88499761D02*
X106069047Y-88547380D01*
X106307142Y-88547380D01*
X106402380Y-88499761D01*
X106450000Y-88404523D01*
X106450000Y-88309285D01*
X106402380Y-88214047D01*
X106307142Y-88166428D01*
X106069047Y-88166428D01*
X105973809Y-88118809D01*
X105497619Y-87880714D02*
X105497619Y-88547380D01*
X105497619Y-87975952D02*
X105450000Y-87928333D01*
X105354761Y-87880714D01*
X105211904Y-87880714D01*
X105116666Y-87928333D01*
X105069047Y-88023571D01*
X105069047Y-88547380D01*
X104735714Y-87880714D02*
X104354761Y-87880714D01*
X104592857Y-87547380D02*
X104592857Y-88404523D01*
X104545238Y-88499761D01*
X104450000Y-88547380D01*
X104354761Y-88547380D01*
X103878571Y-88547380D02*
X103973809Y-88499761D01*
X104021428Y-88452142D01*
X104069047Y-88356904D01*
X104069047Y-88071190D01*
X104021428Y-87975952D01*
X103973809Y-87928333D01*
X103878571Y-87880714D01*
X103735714Y-87880714D01*
X103640476Y-87928333D01*
X103592857Y-87975952D01*
X103545238Y-88071190D01*
X103545238Y-88356904D01*
X103592857Y-88452142D01*
X103640476Y-88499761D01*
X103735714Y-88547380D01*
X103878571Y-88547380D01*
X103116666Y-88547380D02*
X103116666Y-87880714D01*
X103116666Y-87975952D02*
X103069047Y-87928333D01*
X102973809Y-87880714D01*
X102830952Y-87880714D01*
X102735714Y-87928333D01*
X102688095Y-88023571D01*
X102688095Y-88547380D01*
X102688095Y-88023571D02*
X102640476Y-87928333D01*
X102545238Y-87880714D01*
X102402380Y-87880714D01*
X102307142Y-87928333D01*
X102259523Y-88023571D01*
X102259523Y-88547380D01*
X101069047Y-87499761D02*
X101926190Y-88785476D01*
X100164285Y-88547380D02*
X100497619Y-88071190D01*
X100735714Y-88547380D02*
X100735714Y-87547380D01*
X100354761Y-87547380D01*
X100259523Y-87595000D01*
X100211904Y-87642619D01*
X100164285Y-87737857D01*
X100164285Y-87880714D01*
X100211904Y-87975952D01*
X100259523Y-88023571D01*
X100354761Y-88071190D01*
X100735714Y-88071190D01*
X99307142Y-88547380D02*
X99307142Y-88023571D01*
X99354761Y-87928333D01*
X99450000Y-87880714D01*
X99640476Y-87880714D01*
X99735714Y-87928333D01*
X99307142Y-88499761D02*
X99402380Y-88547380D01*
X99640476Y-88547380D01*
X99735714Y-88499761D01*
X99783333Y-88404523D01*
X99783333Y-88309285D01*
X99735714Y-88214047D01*
X99640476Y-88166428D01*
X99402380Y-88166428D01*
X99307142Y-88118809D01*
X98830952Y-88547380D02*
X98830952Y-87880714D01*
X98830952Y-87547380D02*
X98878571Y-87595000D01*
X98830952Y-87642619D01*
X98783333Y-87595000D01*
X98830952Y-87547380D01*
X98830952Y-87642619D01*
X98354761Y-87880714D02*
X98354761Y-88547380D01*
X98354761Y-87975952D02*
X98307142Y-87928333D01*
X98211904Y-87880714D01*
X98069047Y-87880714D01*
X97973809Y-87928333D01*
X97926190Y-88023571D01*
X97926190Y-88547380D01*
X97021428Y-87880714D02*
X97021428Y-88547380D01*
X97450000Y-87880714D02*
X97450000Y-88404523D01*
X97402380Y-88499761D01*
X97307142Y-88547380D01*
X97164285Y-88547380D01*
X97069047Y-88499761D01*
X97021428Y-88452142D01*
X96592857Y-88499761D02*
X96497619Y-88547380D01*
X96307142Y-88547380D01*
X96211904Y-88499761D01*
X96164285Y-88404523D01*
X96164285Y-88356904D01*
X96211904Y-88261666D01*
X96307142Y-88214047D01*
X96450000Y-88214047D01*
X96545238Y-88166428D01*
X96592857Y-88071190D01*
X96592857Y-88023571D01*
X96545238Y-87928333D01*
X96450000Y-87880714D01*
X96307142Y-87880714D01*
X96211904Y-87928333D01*
X109307142Y-91672142D02*
X109354761Y-91719761D01*
X109497619Y-91767380D01*
X109592857Y-91767380D01*
X109735714Y-91719761D01*
X109830952Y-91624523D01*
X109878571Y-91529285D01*
X109926190Y-91338809D01*
X109926190Y-91195952D01*
X109878571Y-91005476D01*
X109830952Y-90910238D01*
X109735714Y-90815000D01*
X109592857Y-90767380D01*
X109497619Y-90767380D01*
X109354761Y-90815000D01*
X109307142Y-90862619D01*
X108878571Y-91767380D02*
X108878571Y-90767380D01*
X108878571Y-91243571D02*
X108307142Y-91243571D01*
X108307142Y-91767380D02*
X108307142Y-90767380D01*
X107830952Y-91767380D02*
X107830952Y-90767380D01*
X106878571Y-91767380D02*
X107354761Y-91767380D01*
X107354761Y-90767380D01*
X106545238Y-91767380D02*
X106545238Y-90767380D01*
X106307142Y-90767380D01*
X106164285Y-90815000D01*
X106069047Y-90910238D01*
X106021428Y-91005476D01*
X105973809Y-91195952D01*
X105973809Y-91338809D01*
X106021428Y-91529285D01*
X106069047Y-91624523D01*
X106164285Y-91719761D01*
X106307142Y-91767380D01*
X106545238Y-91767380D01*
X165821904Y-97097380D02*
X166155238Y-96621190D01*
X166393333Y-97097380D02*
X166393333Y-96097380D01*
X166012380Y-96097380D01*
X165917142Y-96145000D01*
X165869523Y-96192619D01*
X165821904Y-96287857D01*
X165821904Y-96430714D01*
X165869523Y-96525952D01*
X165917142Y-96573571D01*
X166012380Y-96621190D01*
X166393333Y-96621190D01*
X164964761Y-97097380D02*
X164964761Y-96573571D01*
X165012380Y-96478333D01*
X165107619Y-96430714D01*
X165298095Y-96430714D01*
X165393333Y-96478333D01*
X164964761Y-97049761D02*
X165060000Y-97097380D01*
X165298095Y-97097380D01*
X165393333Y-97049761D01*
X165440952Y-96954523D01*
X165440952Y-96859285D01*
X165393333Y-96764047D01*
X165298095Y-96716428D01*
X165060000Y-96716428D01*
X164964761Y-96668809D01*
X164488571Y-97097380D02*
X164488571Y-96430714D01*
X164488571Y-96097380D02*
X164536190Y-96145000D01*
X164488571Y-96192619D01*
X164440952Y-96145000D01*
X164488571Y-96097380D01*
X164488571Y-96192619D01*
X164012380Y-96430714D02*
X164012380Y-97097380D01*
X164012380Y-96525952D02*
X163964761Y-96478333D01*
X163869523Y-96430714D01*
X163726666Y-96430714D01*
X163631428Y-96478333D01*
X163583809Y-96573571D01*
X163583809Y-97097380D01*
X162679047Y-96430714D02*
X162679047Y-97097380D01*
X163107619Y-96430714D02*
X163107619Y-96954523D01*
X163060000Y-97049761D01*
X162964761Y-97097380D01*
X162821904Y-97097380D01*
X162726666Y-97049761D01*
X162679047Y-97002142D01*
X162250476Y-97049761D02*
X162155238Y-97097380D01*
X161964761Y-97097380D01*
X161869523Y-97049761D01*
X161821904Y-96954523D01*
X161821904Y-96906904D01*
X161869523Y-96811666D01*
X161964761Y-96764047D01*
X162107619Y-96764047D01*
X162202857Y-96716428D01*
X162250476Y-96621190D01*
X162250476Y-96573571D01*
X162202857Y-96478333D01*
X162107619Y-96430714D01*
X161964761Y-96430714D01*
X161869523Y-96478333D01*
X160679047Y-96192619D02*
X160631428Y-96145000D01*
X160536190Y-96097380D01*
X160298095Y-96097380D01*
X160202857Y-96145000D01*
X160155238Y-96192619D01*
X160107619Y-96287857D01*
X160107619Y-96383095D01*
X160155238Y-96525952D01*
X160726666Y-97097380D01*
X160107619Y-97097380D01*
X159679047Y-97002142D02*
X159631428Y-97049761D01*
X159679047Y-97097380D01*
X159726666Y-97049761D01*
X159679047Y-97002142D01*
X159679047Y-97097380D01*
X159012380Y-96097380D02*
X158917142Y-96097380D01*
X158821904Y-96145000D01*
X158774285Y-96192619D01*
X158726666Y-96287857D01*
X158679047Y-96478333D01*
X158679047Y-96716428D01*
X158726666Y-96906904D01*
X158774285Y-97002142D01*
X158821904Y-97049761D01*
X158917142Y-97097380D01*
X159012380Y-97097380D01*
X159107619Y-97049761D01*
X159155238Y-97002142D01*
X159202857Y-96906904D01*
X159250476Y-96716428D01*
X159250476Y-96478333D01*
X159202857Y-96287857D01*
X159155238Y-96192619D01*
X159107619Y-96145000D01*
X159012380Y-96097380D01*
X173869523Y-98040714D02*
X173869523Y-98850238D01*
X173917142Y-98945476D01*
X173964761Y-98993095D01*
X174060000Y-99040714D01*
X174202857Y-99040714D01*
X174298095Y-98993095D01*
X173869523Y-98659761D02*
X173964761Y-98707380D01*
X174155238Y-98707380D01*
X174250476Y-98659761D01*
X174298095Y-98612142D01*
X174345714Y-98516904D01*
X174345714Y-98231190D01*
X174298095Y-98135952D01*
X174250476Y-98088333D01*
X174155238Y-98040714D01*
X173964761Y-98040714D01*
X173869523Y-98088333D01*
X173393333Y-98707380D02*
X173393333Y-98040714D01*
X173393333Y-97707380D02*
X173440952Y-97755000D01*
X173393333Y-97802619D01*
X173345714Y-97755000D01*
X173393333Y-97707380D01*
X173393333Y-97802619D01*
X173060000Y-98040714D02*
X172679047Y-98040714D01*
X172917142Y-97707380D02*
X172917142Y-98564523D01*
X172869523Y-98659761D01*
X172774285Y-98707380D01*
X172679047Y-98707380D01*
X172345714Y-98707380D02*
X172345714Y-97707380D01*
X171917142Y-98707380D02*
X171917142Y-98183571D01*
X171964761Y-98088333D01*
X172060000Y-98040714D01*
X172202857Y-98040714D01*
X172298095Y-98088333D01*
X172345714Y-98135952D01*
X171012380Y-98040714D02*
X171012380Y-98707380D01*
X171440952Y-98040714D02*
X171440952Y-98564523D01*
X171393333Y-98659761D01*
X171298095Y-98707380D01*
X171155238Y-98707380D01*
X171060000Y-98659761D01*
X171012380Y-98612142D01*
X170536190Y-98707380D02*
X170536190Y-97707380D01*
X170536190Y-98088333D02*
X170440952Y-98040714D01*
X170250476Y-98040714D01*
X170155238Y-98088333D01*
X170107619Y-98135952D01*
X170060000Y-98231190D01*
X170060000Y-98516904D01*
X170107619Y-98612142D01*
X170155238Y-98659761D01*
X170250476Y-98707380D01*
X170440952Y-98707380D01*
X170536190Y-98659761D01*
X169631428Y-98612142D02*
X169583809Y-98659761D01*
X169631428Y-98707380D01*
X169679047Y-98659761D01*
X169631428Y-98612142D01*
X169631428Y-98707380D01*
X168726666Y-98659761D02*
X168821904Y-98707380D01*
X169012380Y-98707380D01*
X169107619Y-98659761D01*
X169155238Y-98612142D01*
X169202857Y-98516904D01*
X169202857Y-98231190D01*
X169155238Y-98135952D01*
X169107619Y-98088333D01*
X169012380Y-98040714D01*
X168821904Y-98040714D01*
X168726666Y-98088333D01*
X168155238Y-98707380D02*
X168250476Y-98659761D01*
X168298095Y-98612142D01*
X168345714Y-98516904D01*
X168345714Y-98231190D01*
X168298095Y-98135952D01*
X168250476Y-98088333D01*
X168155238Y-98040714D01*
X168012380Y-98040714D01*
X167917142Y-98088333D01*
X167869523Y-98135952D01*
X167821904Y-98231190D01*
X167821904Y-98516904D01*
X167869523Y-98612142D01*
X167917142Y-98659761D01*
X168012380Y-98707380D01*
X168155238Y-98707380D01*
X167393333Y-98707380D02*
X167393333Y-98040714D01*
X167393333Y-98135952D02*
X167345714Y-98088333D01*
X167250476Y-98040714D01*
X167107619Y-98040714D01*
X167012380Y-98088333D01*
X166964761Y-98183571D01*
X166964761Y-98707380D01*
X166964761Y-98183571D02*
X166917142Y-98088333D01*
X166821904Y-98040714D01*
X166679047Y-98040714D01*
X166583809Y-98088333D01*
X166536190Y-98183571D01*
X166536190Y-98707380D01*
X165345714Y-97659761D02*
X166202857Y-98945476D01*
X165060000Y-98659761D02*
X164917142Y-98707380D01*
X164679047Y-98707380D01*
X164583809Y-98659761D01*
X164536190Y-98612142D01*
X164488571Y-98516904D01*
X164488571Y-98421666D01*
X164536190Y-98326428D01*
X164583809Y-98278809D01*
X164679047Y-98231190D01*
X164869523Y-98183571D01*
X164964761Y-98135952D01*
X165012380Y-98088333D01*
X165060000Y-97993095D01*
X165060000Y-97897857D01*
X165012380Y-97802619D01*
X164964761Y-97755000D01*
X164869523Y-97707380D01*
X164631428Y-97707380D01*
X164488571Y-97755000D01*
X164155238Y-97707380D02*
X163917142Y-98707380D01*
X163726666Y-97993095D01*
X163536190Y-98707380D01*
X163298095Y-97707380D01*
X162917142Y-98707380D02*
X162917142Y-97707380D01*
X162536190Y-97707380D01*
X162440952Y-97755000D01*
X162393333Y-97802619D01*
X162345714Y-97897857D01*
X162345714Y-98040714D01*
X162393333Y-98135952D01*
X162440952Y-98183571D01*
X162536190Y-98231190D01*
X162917142Y-98231190D01*
X161917142Y-98707380D02*
X161917142Y-97707380D01*
X161488571Y-98707380D02*
X161488571Y-98183571D01*
X161536190Y-98088333D01*
X161631428Y-98040714D01*
X161774285Y-98040714D01*
X161869523Y-98088333D01*
X161917142Y-98135952D01*
X160583809Y-98707380D02*
X160583809Y-98183571D01*
X160631428Y-98088333D01*
X160726666Y-98040714D01*
X160917142Y-98040714D01*
X161012380Y-98088333D01*
X160583809Y-98659761D02*
X160679047Y-98707380D01*
X160917142Y-98707380D01*
X161012380Y-98659761D01*
X161060000Y-98564523D01*
X161060000Y-98469285D01*
X161012380Y-98374047D01*
X160917142Y-98326428D01*
X160679047Y-98326428D01*
X160583809Y-98278809D01*
X160107619Y-98040714D02*
X160107619Y-98707380D01*
X160107619Y-98135952D02*
X160060000Y-98088333D01*
X159964761Y-98040714D01*
X159821904Y-98040714D01*
X159726666Y-98088333D01*
X159679047Y-98183571D01*
X159679047Y-98707380D01*
X159345714Y-98040714D02*
X158964761Y-98040714D01*
X159202857Y-97707380D02*
X159202857Y-98564523D01*
X159155238Y-98659761D01*
X159060000Y-98707380D01*
X158964761Y-98707380D01*
X158488571Y-98707380D02*
X158583809Y-98659761D01*
X158631428Y-98612142D01*
X158679047Y-98516904D01*
X158679047Y-98231190D01*
X158631428Y-98135952D01*
X158583809Y-98088333D01*
X158488571Y-98040714D01*
X158345714Y-98040714D01*
X158250476Y-98088333D01*
X158202857Y-98135952D01*
X158155238Y-98231190D01*
X158155238Y-98516904D01*
X158202857Y-98612142D01*
X158250476Y-98659761D01*
X158345714Y-98707380D01*
X158488571Y-98707380D01*
X157726666Y-98707380D02*
X157726666Y-98040714D01*
X157726666Y-98135952D02*
X157679047Y-98088333D01*
X157583809Y-98040714D01*
X157440952Y-98040714D01*
X157345714Y-98088333D01*
X157298095Y-98183571D01*
X157298095Y-98707380D01*
X157298095Y-98183571D02*
X157250476Y-98088333D01*
X157155238Y-98040714D01*
X157012380Y-98040714D01*
X156917142Y-98088333D01*
X156869523Y-98183571D01*
X156869523Y-98707380D01*
X155679047Y-97659761D02*
X156536190Y-98945476D01*
X154774285Y-98707380D02*
X155107619Y-98231190D01*
X155345714Y-98707380D02*
X155345714Y-97707380D01*
X154964761Y-97707380D01*
X154869523Y-97755000D01*
X154821904Y-97802619D01*
X154774285Y-97897857D01*
X154774285Y-98040714D01*
X154821904Y-98135952D01*
X154869523Y-98183571D01*
X154964761Y-98231190D01*
X155345714Y-98231190D01*
X153917142Y-98707380D02*
X153917142Y-98183571D01*
X153964761Y-98088333D01*
X154060000Y-98040714D01*
X154250476Y-98040714D01*
X154345714Y-98088333D01*
X153917142Y-98659761D02*
X154012380Y-98707380D01*
X154250476Y-98707380D01*
X154345714Y-98659761D01*
X154393333Y-98564523D01*
X154393333Y-98469285D01*
X154345714Y-98374047D01*
X154250476Y-98326428D01*
X154012380Y-98326428D01*
X153917142Y-98278809D01*
X153440952Y-98707380D02*
X153440952Y-98040714D01*
X153440952Y-97707380D02*
X153488571Y-97755000D01*
X153440952Y-97802619D01*
X153393333Y-97755000D01*
X153440952Y-97707380D01*
X153440952Y-97802619D01*
X152964761Y-98040714D02*
X152964761Y-98707380D01*
X152964761Y-98135952D02*
X152917142Y-98088333D01*
X152821904Y-98040714D01*
X152679047Y-98040714D01*
X152583809Y-98088333D01*
X152536190Y-98183571D01*
X152536190Y-98707380D01*
X151631428Y-98040714D02*
X151631428Y-98707380D01*
X152060000Y-98040714D02*
X152060000Y-98564523D01*
X152012380Y-98659761D01*
X151917142Y-98707380D01*
X151774285Y-98707380D01*
X151679047Y-98659761D01*
X151631428Y-98612142D01*
X151202857Y-98659761D02*
X151107619Y-98707380D01*
X150917142Y-98707380D01*
X150821904Y-98659761D01*
X150774285Y-98564523D01*
X150774285Y-98516904D01*
X150821904Y-98421666D01*
X150917142Y-98374047D01*
X151060000Y-98374047D01*
X151155238Y-98326428D01*
X151202857Y-98231190D01*
X151202857Y-98183571D01*
X151155238Y-98088333D01*
X151060000Y-98040714D01*
X150917142Y-98040714D01*
X150821904Y-98088333D01*
X165274285Y-101927380D02*
X165274285Y-100927380D01*
X164940952Y-101641666D01*
X164607619Y-100927380D01*
X164607619Y-101927380D01*
X163940952Y-100927380D02*
X163750476Y-100927380D01*
X163655238Y-100975000D01*
X163560000Y-101070238D01*
X163512380Y-101260714D01*
X163512380Y-101594047D01*
X163560000Y-101784523D01*
X163655238Y-101879761D01*
X163750476Y-101927380D01*
X163940952Y-101927380D01*
X164036190Y-101879761D01*
X164131428Y-101784523D01*
X164179047Y-101594047D01*
X164179047Y-101260714D01*
X164131428Y-101070238D01*
X164036190Y-100975000D01*
X163940952Y-100927380D01*
X163226666Y-100927380D02*
X162655238Y-100927380D01*
X162940952Y-101927380D02*
X162940952Y-100927380D01*
X162321904Y-101927380D02*
X162321904Y-100927380D01*
X162321904Y-101403571D02*
X161750476Y-101403571D01*
X161750476Y-101927380D02*
X161750476Y-100927380D01*
X161274285Y-101403571D02*
X160940952Y-101403571D01*
X160798095Y-101927380D02*
X161274285Y-101927380D01*
X161274285Y-100927380D01*
X160798095Y-100927380D01*
X159798095Y-101927380D02*
X160131428Y-101451190D01*
X160369523Y-101927380D02*
X160369523Y-100927380D01*
X159988571Y-100927380D01*
X159893333Y-100975000D01*
X159845714Y-101022619D01*
X159798095Y-101117857D01*
X159798095Y-101260714D01*
X159845714Y-101355952D01*
X159893333Y-101403571D01*
X159988571Y-101451190D01*
X160369523Y-101451190D01*
X101980952Y-81351428D02*
X101219047Y-81351428D01*
X135500952Y-102052380D02*
X135834285Y-101576190D01*
X136072380Y-102052380D02*
X136072380Y-101052380D01*
X135691428Y-101052380D01*
X135596190Y-101100000D01*
X135548571Y-101147619D01*
X135500952Y-101242857D01*
X135500952Y-101385714D01*
X135548571Y-101480952D01*
X135596190Y-101528571D01*
X135691428Y-101576190D01*
X136072380Y-101576190D01*
X135120000Y-101766666D02*
X134643809Y-101766666D01*
X135215238Y-102052380D02*
X134881904Y-101052380D01*
X134548571Y-102052380D01*
X134215238Y-102052380D02*
X134215238Y-101052380D01*
X133739047Y-102052380D02*
X133739047Y-101052380D01*
X133167619Y-102052380D01*
X133167619Y-101052380D01*
X102940952Y-96437380D02*
X102369523Y-96437380D01*
X102655238Y-97437380D02*
X102655238Y-96437380D01*
X101845714Y-96437380D02*
X101655238Y-96437380D01*
X101560000Y-96485000D01*
X101464761Y-96580238D01*
X101417142Y-96770714D01*
X101417142Y-97104047D01*
X101464761Y-97294523D01*
X101560000Y-97389761D01*
X101655238Y-97437380D01*
X101845714Y-97437380D01*
X101940952Y-97389761D01*
X102036190Y-97294523D01*
X102083809Y-97104047D01*
X102083809Y-96770714D01*
X102036190Y-96580238D01*
X101940952Y-96485000D01*
X101845714Y-96437380D01*
X99655238Y-97437380D02*
X99988571Y-96961190D01*
X100226666Y-97437380D02*
X100226666Y-96437380D01*
X99845714Y-96437380D01*
X99750476Y-96485000D01*
X99702857Y-96532619D01*
X99655238Y-96627857D01*
X99655238Y-96770714D01*
X99702857Y-96865952D01*
X99750476Y-96913571D01*
X99845714Y-96961190D01*
X100226666Y-96961190D01*
X99274285Y-97151666D02*
X98798095Y-97151666D01*
X99369523Y-97437380D02*
X99036190Y-96437380D01*
X98702857Y-97437380D01*
X98369523Y-97437380D02*
X98369523Y-96437380D01*
X97893333Y-97437380D02*
X97893333Y-96437380D01*
X97321904Y-97437380D01*
X97321904Y-96437380D01*
X96845714Y-96437380D02*
X96845714Y-97246904D01*
X96798095Y-97342142D01*
X96750476Y-97389761D01*
X96655238Y-97437380D01*
X96464761Y-97437380D01*
X96369523Y-97389761D01*
X96321904Y-97342142D01*
X96274285Y-97246904D01*
X96274285Y-96437380D01*
X95845714Y-97389761D02*
X95702857Y-97437380D01*
X95464761Y-97437380D01*
X95369523Y-97389761D01*
X95321904Y-97342142D01*
X95274285Y-97246904D01*
X95274285Y-97151666D01*
X95321904Y-97056428D01*
X95369523Y-97008809D01*
X95464761Y-96961190D01*
X95655238Y-96913571D01*
X95750476Y-96865952D01*
X95798095Y-96818333D01*
X95845714Y-96723095D01*
X95845714Y-96627857D01*
X95798095Y-96532619D01*
X95750476Y-96485000D01*
X95655238Y-96437380D01*
X95417142Y-96437380D01*
X95274285Y-96485000D01*
X101774285Y-99047380D02*
X101774285Y-98047380D01*
X101440952Y-98761666D01*
X101107619Y-98047380D01*
X101107619Y-99047380D01*
X100440952Y-98047380D02*
X100250476Y-98047380D01*
X100155238Y-98095000D01*
X100060000Y-98190238D01*
X100012380Y-98380714D01*
X100012380Y-98714047D01*
X100060000Y-98904523D01*
X100155238Y-98999761D01*
X100250476Y-99047380D01*
X100440952Y-99047380D01*
X100536190Y-98999761D01*
X100631428Y-98904523D01*
X100679047Y-98714047D01*
X100679047Y-98380714D01*
X100631428Y-98190238D01*
X100536190Y-98095000D01*
X100440952Y-98047380D01*
X99726666Y-98047380D02*
X99155238Y-98047380D01*
X99440952Y-99047380D02*
X99440952Y-98047380D01*
X98821904Y-99047380D02*
X98821904Y-98047380D01*
X98821904Y-98523571D02*
X98250476Y-98523571D01*
X98250476Y-99047380D02*
X98250476Y-98047380D01*
X97774285Y-98523571D02*
X97440952Y-98523571D01*
X97298095Y-99047380D02*
X97774285Y-99047380D01*
X97774285Y-98047380D01*
X97298095Y-98047380D01*
X96298095Y-99047380D02*
X96631428Y-98571190D01*
X96869523Y-99047380D02*
X96869523Y-98047380D01*
X96488571Y-98047380D01*
X96393333Y-98095000D01*
X96345714Y-98142619D01*
X96298095Y-98237857D01*
X96298095Y-98380714D01*
X96345714Y-98475952D01*
X96393333Y-98523571D01*
X96488571Y-98571190D01*
X96869523Y-98571190D01*
X163321904Y-90940000D02*
X163417142Y-90892380D01*
X163560000Y-90892380D01*
X163702857Y-90940000D01*
X163798095Y-91035238D01*
X163845714Y-91130476D01*
X163893333Y-91320952D01*
X163893333Y-91463809D01*
X163845714Y-91654285D01*
X163798095Y-91749523D01*
X163702857Y-91844761D01*
X163560000Y-91892380D01*
X163464761Y-91892380D01*
X163321904Y-91844761D01*
X163274285Y-91797142D01*
X163274285Y-91463809D01*
X163464761Y-91463809D01*
X162845714Y-91892380D02*
X162845714Y-90892380D01*
X162274285Y-91892380D01*
X162274285Y-90892380D01*
X161798095Y-91892380D02*
X161798095Y-90892380D01*
X161560000Y-90892380D01*
X161417142Y-90940000D01*
X161321904Y-91035238D01*
X161274285Y-91130476D01*
X161226666Y-91320952D01*
X161226666Y-91463809D01*
X161274285Y-91654285D01*
X161321904Y-91749523D01*
X161417142Y-91844761D01*
X161560000Y-91892380D01*
X161798095Y-91892380D01*
X137453333Y-80927380D02*
X137453333Y-79927380D01*
X137072380Y-79927380D01*
X136977142Y-79975000D01*
X136929523Y-80022619D01*
X136881904Y-80117857D01*
X136881904Y-80260714D01*
X136929523Y-80355952D01*
X136977142Y-80403571D01*
X137072380Y-80451190D01*
X137453333Y-80451190D01*
X136262857Y-79927380D02*
X136072380Y-79927380D01*
X135977142Y-79975000D01*
X135881904Y-80070238D01*
X135834285Y-80260714D01*
X135834285Y-80594047D01*
X135881904Y-80784523D01*
X135977142Y-80879761D01*
X136072380Y-80927380D01*
X136262857Y-80927380D01*
X136358095Y-80879761D01*
X136453333Y-80784523D01*
X136500952Y-80594047D01*
X136500952Y-80260714D01*
X136453333Y-80070238D01*
X136358095Y-79975000D01*
X136262857Y-79927380D01*
X135500952Y-79927380D02*
X135262857Y-80927380D01*
X135072380Y-80213095D01*
X134881904Y-80927380D01*
X134643809Y-79927380D01*
X134262857Y-80403571D02*
X133929523Y-80403571D01*
X133786666Y-80927380D02*
X134262857Y-80927380D01*
X134262857Y-79927380D01*
X133786666Y-79927380D01*
X132786666Y-80927380D02*
X133120000Y-80451190D01*
X133358095Y-80927380D02*
X133358095Y-79927380D01*
X132977142Y-79927380D01*
X132881904Y-79975000D01*
X132834285Y-80022619D01*
X132786666Y-80117857D01*
X132786666Y-80260714D01*
X132834285Y-80355952D01*
X132881904Y-80403571D01*
X132977142Y-80451190D01*
X133358095Y-80451190D01*
X131643809Y-79879761D02*
X132500952Y-81165476D01*
X135739047Y-82442142D02*
X135786666Y-82489761D01*
X135929523Y-82537380D01*
X136024761Y-82537380D01*
X136167619Y-82489761D01*
X136262857Y-82394523D01*
X136310476Y-82299285D01*
X136358095Y-82108809D01*
X136358095Y-81965952D01*
X136310476Y-81775476D01*
X136262857Y-81680238D01*
X136167619Y-81585000D01*
X136024761Y-81537380D01*
X135929523Y-81537380D01*
X135786666Y-81585000D01*
X135739047Y-81632619D01*
X135358095Y-82251666D02*
X134881904Y-82251666D01*
X135453333Y-82537380D02*
X135120000Y-81537380D01*
X134786666Y-82537380D01*
X133881904Y-82537380D02*
X134215238Y-82061190D01*
X134453333Y-82537380D02*
X134453333Y-81537380D01*
X134072380Y-81537380D01*
X133977142Y-81585000D01*
X133929523Y-81632619D01*
X133881904Y-81727857D01*
X133881904Y-81870714D01*
X133929523Y-81965952D01*
X133977142Y-82013571D01*
X134072380Y-82061190D01*
X134453333Y-82061190D01*
X133453333Y-82537380D02*
X133453333Y-81537380D01*
X133215238Y-81537380D01*
X133072380Y-81585000D01*
X132977142Y-81680238D01*
X132929523Y-81775476D01*
X132881904Y-81965952D01*
X132881904Y-82108809D01*
X132929523Y-82299285D01*
X132977142Y-82394523D01*
X133072380Y-82489761D01*
X133215238Y-82537380D01*
X133453333Y-82537380D01*
X161210476Y-75652380D02*
X160591428Y-75652380D01*
X160924761Y-76033333D01*
X160781904Y-76033333D01*
X160686666Y-76080952D01*
X160639047Y-76128571D01*
X160591428Y-76223809D01*
X160591428Y-76461904D01*
X160639047Y-76557142D01*
X160686666Y-76604761D01*
X160781904Y-76652380D01*
X161067619Y-76652380D01*
X161162857Y-76604761D01*
X161210476Y-76557142D01*
X160258095Y-75985714D02*
X160020000Y-76652380D01*
X159781904Y-75985714D01*
X159496190Y-75652380D02*
X158877142Y-75652380D01*
X159210476Y-76033333D01*
X159067619Y-76033333D01*
X158972380Y-76080952D01*
X158924761Y-76128571D01*
X158877142Y-76223809D01*
X158877142Y-76461904D01*
X158924761Y-76557142D01*
X158972380Y-76604761D01*
X159067619Y-76652380D01*
X159353333Y-76652380D01*
X159448571Y-76604761D01*
X159496190Y-76557142D01*
X140080952Y-66111428D02*
X139319047Y-66111428D01*
X145160952Y-71191428D02*
X144399047Y-71191428D01*
X144780000Y-71572380D02*
X144780000Y-70810476D01*
X109600952Y-81351428D02*
X108839047Y-81351428D01*
X109220000Y-81732380D02*
X109220000Y-80970476D01*
X108878095Y-69365714D02*
X109116190Y-69365714D01*
X109116190Y-67937142D01*
X108878095Y-67937142D01*
X106640000Y-68508571D02*
X106497142Y-68556190D01*
X106449523Y-68603809D01*
X106401904Y-68699047D01*
X106401904Y-68841904D01*
X106449523Y-68937142D01*
X106497142Y-68984761D01*
X106592380Y-69032380D01*
X106973333Y-69032380D01*
X106973333Y-68032380D01*
X106640000Y-68032380D01*
X106544761Y-68080000D01*
X106497142Y-68127619D01*
X106449523Y-68222857D01*
X106449523Y-68318095D01*
X106497142Y-68413333D01*
X106544761Y-68460952D01*
X106640000Y-68508571D01*
X106973333Y-68508571D01*
X106020952Y-68746666D02*
X105544761Y-68746666D01*
X106116190Y-69032380D02*
X105782857Y-68032380D01*
X105449523Y-69032380D01*
X105259047Y-68032380D02*
X104687619Y-68032380D01*
X104973333Y-69032380D02*
X104973333Y-68032380D01*
X104497142Y-68032380D02*
X103925714Y-68032380D01*
X104211428Y-69032380D02*
X104211428Y-68032380D01*
X103592380Y-68508571D02*
X103259047Y-68508571D01*
X103116190Y-69032380D02*
X103592380Y-69032380D01*
X103592380Y-68032380D01*
X103116190Y-68032380D01*
X102116190Y-69032380D02*
X102449523Y-68556190D01*
X102687619Y-69032380D02*
X102687619Y-68032380D01*
X102306666Y-68032380D01*
X102211428Y-68080000D01*
X102163809Y-68127619D01*
X102116190Y-68222857D01*
X102116190Y-68365714D01*
X102163809Y-68460952D01*
X102211428Y-68508571D01*
X102306666Y-68556190D01*
X102687619Y-68556190D01*
X101497142Y-68556190D02*
X101497142Y-69032380D01*
X101830476Y-68032380D02*
X101497142Y-68556190D01*
X101163809Y-68032380D01*
X99401904Y-69365714D02*
X99163809Y-69365714D01*
X99163809Y-67937142D01*
X99401904Y-67937142D01*
D11*
%TO.C,REF\u002A\u002A*%
X134620000Y-86360000D03*
X134620000Y-74930000D03*
%TD*%
%TO.C,REF\u002A\u002A*%
X97798750Y-104140000D03*
X97798750Y-92710000D03*
%TD*%
%TO.C,REF\u002A\u002A*%
X134120000Y-107432500D03*
X134120000Y-96002500D03*
%TD*%
%LPC*%
D12*
%TO.C,*%
X118618750Y-104657500D03*
%TD*%
%TO.C,*%
X118618750Y-97037500D03*
%TD*%
%TO.C,*%
X180340000Y-72390000D03*
%TD*%
%TO.C,*%
X118618750Y-91957500D03*
%TD*%
%TO.C,*%
X138430000Y-66040000D03*
%TD*%
%TO.C,*%
X180340000Y-77470000D03*
%TD*%
%TO.C,*%
X118618750Y-102117500D03*
%TD*%
D11*
%TO.C,REF\u002A\u002A*%
X134620000Y-86360000D03*
X134620000Y-74930000D03*
D13*
X140970000Y-76200000D03*
D14*
X143510000Y-77470000D03*
X140970000Y-78740000D03*
X143510000Y-80010000D03*
X140970000Y-81280000D03*
X143510000Y-82550000D03*
X140970000Y-83820000D03*
X143510000Y-85090000D03*
%TD*%
D12*
%TO.C,*%
X180340000Y-80010000D03*
%TD*%
%TO.C,*%
X102108750Y-83067500D03*
%TD*%
%TO.C,*%
X118618750Y-99577500D03*
%TD*%
%TO.C,REF\u002A\u002A*%
X161290000Y-67310000D03*
X161290000Y-105410000D03*
X172720000Y-74930000D03*
X172720000Y-77470000D03*
X172720000Y-80010000D03*
X172720000Y-82550000D03*
X172720000Y-85090000D03*
X172720000Y-87630000D03*
X172720000Y-90170000D03*
D15*
X149890000Y-72390000D03*
D12*
X149860000Y-74930000D03*
X149860000Y-77470000D03*
X149860000Y-80010000D03*
X149860000Y-82550000D03*
X149860000Y-85090000D03*
X149860000Y-87630000D03*
X149860000Y-90170000D03*
D15*
X172720000Y-72390000D03*
%TD*%
D12*
%TO.C,*%
X180340000Y-82550000D03*
%TD*%
D11*
%TO.C,REF\u002A\u002A*%
X97798750Y-104140000D03*
X97798750Y-92710000D03*
D13*
X104148750Y-93980000D03*
D14*
X106688750Y-95250000D03*
X104148750Y-96520000D03*
X106688750Y-97790000D03*
X104148750Y-99060000D03*
X106688750Y-100330000D03*
X104148750Y-101600000D03*
X106688750Y-102870000D03*
%TD*%
D12*
%TO.C,*%
X108458750Y-83067500D03*
%TD*%
D11*
%TO.C,REF\u002A\u002A*%
X134120000Y-107432500D03*
X134120000Y-96002500D03*
D13*
X140470000Y-97272500D03*
D14*
X143010000Y-98542500D03*
X140470000Y-99812500D03*
X143010000Y-101082500D03*
X140470000Y-102352500D03*
X143010000Y-103622500D03*
X140470000Y-104892500D03*
X143010000Y-106162500D03*
%TD*%
D12*
%TO.C,*%
X154940000Y-78740000D03*
%TD*%
%TO.C,*%
X118618750Y-94497500D03*
%TD*%
%TO.C,*%
X154940000Y-93980000D03*
%TD*%
%TO.C,*%
X144780000Y-69850000D03*
%TD*%
%TO.C,*%
X180340000Y-74930000D03*
%TD*%
M02*
